/* XPM */
static char *west[] = {
/* columns rows colors chars-per-pixel */
"64 64 172 2 ",
"   c #0E0C0C",
".  c #110E0E",
"X  c #130F11",
"o  c #141212",
"O  c #191216",
"+  c #17151F",
"@  c #1D1318",
"#  c #1C1B1B",
"$  c #23151D",
"%  c #171421",
"&  c #191625",
"*  c #191729",
"=  c #1C192B",
"-  c #1E1B35",
";  c #1F1C38",
":  c #221F21",
">  c #2E1A25",
",  c #301D27",
"<  c #341B28",
"1  c #231D36",
"2  c #211E38",
"3  c #281F38",
"4  c #1B2021",
"5  c #252323",
"6  c #282526",
"7  c #2B272A",
"8  c #2B2A2A",
"9  c #37222E",
"0  c #312F2F",
"q  c #25223B",
"w  c #2A253D",
"e  c #29283D",
"r  c #3F2236",
"t  c #3E2438",
"y  c #273031",
"u  c #343333",
"i  c #3A3737",
"p  c #3D3837",
"a  c #3D363B",
"s  c #3D3A3A",
"d  c #452437",
"f  c #452538",
"g  c #442A3B",
"h  c #492B3D",
"j  c #44303E",
"k  c #4B313F",
"l  c #403F3F",
"z  c #2C2741",
"x  c #2D2A41",
"c  c #332D43",
"v  c #2E3043",
"b  c #2C3F44",
"n  c #333145",
"m  c #383347",
"M  c #323F42",
"N  c #4C2F42",
"B  c #502F42",
"V  c #473240",
"C  c #4C3342",
"Z  c #423C42",
"A  c #4E3845",
"S  c #4E3E49",
"D  c #513345",
"F  c #513847",
"G  c #543648",
"H  c #543B4C",
"J  c #2E4646",
"K  c #2E4847",
"L  c #334346",
"P  c #324748",
"I  c #3A464A",
"U  c #344949",
"Y  c #3B4B4C",
"T  c #3C4F51",
"R  c #3E5152",
"E  c #444343",
"W  c #484747",
"Q  c #4D4846",
"!  c #4B434A",
"~  c #4C4A4A",
"^  c #504947",
"/  c #524D4D",
"(  c #594A4F",
")  c #434D51",
"_  c #5C4F52",
"`  c #415254",
"'  c #555454",
"]  c #5D5455",
"[  c #5D5957",
"{  c #5C535B",
"}  c #5C5B5B",
"|  c #615656",
" . c #615857",
".. c #615758",
"X. c #635C5A",
"o. c #67605E",
"O. c #5E5D65",
"+. c #645C64",
"@. c #685F69",
"#. c #656262",
"$. c #696362",
"%. c #65656A",
"&. c #6B656A",
"*. c #676C6C",
"=. c #6C6B6E",
"-. c #706C6F",
";. c #70706F",
":. c #6D6C70",
">. c #716E72",
",. c #6E7176",
"<. c #6F7279",
"1. c #767676",
"2. c #787576",
"3. c #767678",
"4. c #797679",
"5. c #777878",
"6. c #7B797B",
"7. c #7C7E81",
"8. c #847582",
"9. c #887786",
"0. c #857986",
"q. c #887887",
"w. c #867B8B",
"e. c #8B7C8B",
"r. c #7D8284",
"t. c #8C828D",
"y. c #80898D",
"u. c #8E8491",
"i. c #8F8A96",
"p. c #938493",
"a. c #928693",
"s. c #908591",
"d. c #938694",
"f. c #948795",
"g. c #938694",
"h. c #968997",
"j. c #958896",
"k. c #968897",
"l. c #978998",
"z. c #978A99",
"x. c #978A99",
"c. c #988A99",
"v. c #988A99",
"b. c #95909E",
"n. c #8793A0",
"m. c #869BA6",
"M. c #889AA7",
"N. c #8C9EA6",
"B. c #899BA7",
"V. c #8F9EA8",
"C. c #87A2AD",
"Z. c #8FA3AC",
"A. c #8FA4AE",
"S. c #8CA4AE",
"D. c #90A0AB",
"F. c #91A2AE",
"G. c #8FA5B1",
"H. c #90A7B1",
"J. c #92A4B0",
"K. c #91A7B1",
"L. c #90A8B2",
"P. c #95A9B6",
"I. c #95AAB7",
"U. c #96ABB7",
"Y. c #94A8B5",
"T. c #93AAB5",
"R. c #93ADB9",
"E. c #94AEBA",
"W. c #95B0BC",
"Q. c #96B2BE",
"!. c #95B2BE",
"~. c #96B1BD",
/* pixels */
"l.l.l.s.1.%.; x 1.r.Q.U.l.l.l.l.l.l.l.l.l.l.l.l.l.s.3.>.q q 1.1.Q.Q.l.l.l.l.l.l.l.l.l.l.l.l.l.l.l.l.6.1.x 2 =.1.U.Q.b.l.l.l.l.l.",
"s.s.s.t.6.:.3 c r.y.A.V.s.s.s.s.s.s.s.s.s.s.s.s.s.t.6.3.w w 7.r.A.A.u.s.s.s.s.s.s.s.s.s.s.s.s.s.s.s.6.6.c 3 <.r.N.A.i.s.s.s.s.s.",
"1.1.1.6.l.9.d H Q.H.1.1.1.1.1.1.1.1.1.1.1.1.1.1.1.6.j.s.h h R.Q.1.1.1.1.1.1.1.1.1.1.1.1.1.1.1.1.1.1.s.j.G f N.Q.r.1.1.1.1.1.1.1.",
"1.1.1.6.s.8.d H U.D.1.1.1.1.1.1.1.1.1.1.1.1.1.1.1.4.u.e.h h H.U.1.1.1.1.1.1.1.1.1.1.1.1.1.1.1.1.1.1.t.s.G f n.U.7.1.1.1.1.1.1.1.",
"1.1.1.1.1.&.d G l.s.1.1.1.1.1.1.1.1.1.1.1.1.1.1.1.1.1.1.h h s.j.1.1.1.1.1.1.1.1.1.1.1.1.1.1.1.1.1.1.1.1.C f 9.j.6.1.1.1.1.1.1.1.",
"1.1.1.1.1.$.g H l.s.1.1.1.1.1.1.1.1.1.1.1.1.1.1.1.1.1.=.g V s.l.1.1.1.1.1.1.1.1.1.1.1.1.1.1.1.1.1.1.1.1.C g q.l.6.1.1.1.1.1.1.1.",
"1.1.1.1. .] K ` l.s.1.1.1.1.1.1.1.1.1.1.1.1.1.1.1.1. .[ U U s.l.1.1.1.1.1.1.1.1.1.1.1.1.1.1.1.1.1.1. . .U U w.l.6.1.1.1.1.1.1.1.",
"1.1.1.1. .] K ` l.s.1.1.1.1.1.1.1.1.1.1.1.1.1.1.1.1. .[ U U s.l.1.1.1.1.1.1.1.1.1.1.1.1.1.1.1.1.1.1. . .I L w.l.6.1.1.1.1.1.1.1.",
"1.1.1.1. .] K ` l.s.1.1.1.1.1.1.1.1.1.1.1.1.1.1. . . .[ U U s.j.1.1.1.1.1.1.1.1.1.1.1.1.1.1.1.1.1.1. . .h f q.l.6.1.1.1.1.1.1.1.",
"1.1.1.1. .] L ) l.s.1.1.1.1.1.1.1.1.1.1.1.1.1.1.o.o. .[ L I s.l.1.1.1.1.1.1.1.1.1.1.1.1.1.1.1.1.1.1. . .V g q.l.6.1.1.1.1.1.1.1.",
"1.1.1.1. .] d G v.s.1.1.1.1.1.1.1.1.1.1.1.1. . .1.1. .| f h s.l.1.1.1.1.1.1.1.1.1.1.1.1.1.1.1.1.1.1. . .U U w.l.6.1.1.1.1.1.1.1.",
"1.1.1.=.] ( f C s.t.6.6.1.1.1.1.1.1.1.1.1.1. . .1.1.] _ f g t.s.6.6.1.1.1.1.1.1.1.1.1.1.1.1.1.1.1.1...] L K q.s.7.6.1.1.1.1.1.1.",
" . . .] f t ; x 1.4.{ { W W s  . . . . . . . . . .| f f 2 = W W { { &.1.1.1.1.1. . .1.1. . . . ./ s , > & = =.1.s.l.6.1.1.1.1.1.",
"[ ] ] ( f t 2 x =.>.#         W ] ] ] ] [ [ [ [ ] ] f t ;           s -.-.-.=.=.] ] =.=...] ] ] 6         & O.=.q.e.>.-.=.=.=.=.",
"K M d t ; 2 2 2 ; 2 $         & ; ; 2 q K K K K f f 2 2 *           O f f f 2 ; ; 2 ; 2 f f f d o         ; ; ; f f f f 2 ; ; ; ",
"R Y N N x x z x x c 9         + ; 2 w x R R T Y B N x x &             h N N w w 2 2 w w C C C g         X x x x N N h h w 2 q w ",
"Q.U.l.l.v.v.v.v.v.v.e.        # ; w 1.7.Q.R.l.l.l.v.v.v.#             +.l.l.6.1.q 2 1.6.U.Q.l.+.        Z v.v.v.v.v.6.1.c ; %.1.",
"U.D.s.s.s.s.s.s.s.s.s.:         3 x 6.r.U.H.s.s.s.s.s.4.              a s.s.6.6.w 2 3.7.A.U.j.Z         +.s.s.s.s.s.7.6.n 2 %.1.",
"5.3.3.3.1.1.1.1.1.1.1.s         < C R.U.5.5.1.1.1.1.1.W       o       o 1.4.s.j.h f G.R.6.5.1.#         =.1.1.1.1.1.s.j.H f &.1.",
"1.1.1.1.1.1.1.1.1.1.1.'         $ G U.H.5.1.1.1.1.1.1.7       p o       %.1.s.s.h f D.R.6.1.=.        # 1.1.1.1.1.1.t.s.H f &.1.",
"1.1.1.1.1.1.1.1.1.1.1.=.        O C j.s.1.1.1.1.1.1.1..       4.0       W 1.1.1.h f s.j.6.1.'         s 1.1.1.1.1.1.2.2.G f &.1.",
"1.1.1.1.1.1.1.1.1.1.1.1.5         C j.s.1.1.1.1.1.1.'       # s.W       6 1.1.1.g g s.j.6.1.s         ' 1.1.1.1.1.1.1.1.A f &.1.",
"1.1.1.1.1.1.1.1.1.1.1.1.s         M s.s.1.1.1.1.1.1.0       u 1.=.      . 1. . .U K u.j.6.1.5         1.1.1.1.1.1.1.o. .Y K *.1.",
"1.1.1.1.1.1.1.1.1.1.1.1.}         y s.s.1.1.1.1.1.1.#       ' 1.1.#       '  . .P L u.j.6.1..       5 1.1.1.1.1.1.1.o. .Y K *.1.",
"1.1.1.1.1.1.1.1.1.1.1.1.1..       4 s.s.1.1.1.1.1.=.        =.1.1.s       p  . .g f s.j.6.}         l 1.1.1.1.1.1.5.o. .Y K *.1.",
"1.1.1.1.1.1.1.1.1.1.1.1.1.5       o s.s.1.1.1.1.1.W       5 1.1.1.}       #  . .g f s.j.6.W         } 1.1.1.1.1.1.1.o. .Y K *.1.",
"1.1.1.1.1.1.1.1.1.1.1.1.1.W         4.s.1.1.1.1.1.0       W 1.1.1.1..       ]  .g f s.j.6.7       o 1.1.1.1.1.1.1.1.o. .Y K *.1.",
"6.4.1.1.1.1.1.1.1.1.1.1.1.}         { s.6.6.1.1.1.o       } 1.1.1.1.7       s | f f e.s.6.o       7 1.1.1.1.1.1.1.1. .| I K *.1.",
"j.t.1.1. .o.1.1. . . . . .] .       u 6.s.s.1.1.}       o  . . . . .p       $ f 2 2 1.4.4.        p  . . . . . . . .k f w 2 %.1.",
"s.t.1.;. . .1.=.] ] ] [  .] @       # 3.s.t.1.1.l       6 ] ] ]  . ./       . d 2 2 =.1.{         W [ } ] ] ] ]  . .h f 3 ; %.1.",
"h j U L f f q q 2 2 2 w f f &         3 h h h h O       & 2 2 2 f f f X       * 2 2 q q $       o L q q q q 2 2 f f 3 2 2 ; 2 q ",
"f g P L f t 2 2 2 2 2 2 f f ;         = f f f d         ; 2 2 2 f f f $       % 2 2 2 2 o       # U q 2 2 2 2 2 f f w 2 2 2 2 2 ",
"j.j.j.j.j.u.1.%.; x 1.7.R.U.s.O       W j.j.j.@.      # q q 1.1.R.R.l.@.      6 s.j.s.e.        { j.6.1.x 2 &.1.A.R.l.s.j.s.s.j.",
"j.j.j.j.j.s.1.=.3 c 5.r.R.U.j.a       7 j.j.j.Z       s q q 3.6.R.R.l.e.        e.j.j.&.        8.j.6.1.x 2 =.5.G.Q.l.j.j.j.j.j.",
"4.4.4.4.4.6.j.q.d H R.G.6.6.4.W       . 1.4.4.#       &.h h U.R.6.6.4.4.5       ' 4.4.s       # 4.4.s.j.G f m.R.r.6.6.4.4.4.4.4.",
"1.1.1.1.1.6.j.q.d H R.H.1.1.1.%.        } 1.%.      o e.h h U.R.1.1.1.1.W       u 1.1.5       u 1.1.s.j.G f N.Q.r.1.1.1.1.1.1.1.",
"1.1.1.1.1.1.6.-.d G l.j.1.1.1.1.#       W 1.W       7 1.h h s.l.1.1.1.1.}       o 1.1..       / 1.1.6.6.C f w.l.6.1.1.1.1.1.1.1.",
"1.1.1.1.1.1.1.=.d G s.s.1.1.1.1.u       7 1.7       W >.g h s.l.1.1.1.1.1.o       %.}         =.1.1.1.1.C f q.l.6.1.1.1.1.1.1.1.",
"1.1.1.1.1.1. .] d G s.s.1.1.1.1.'       o 1..       ]  .L U s.l.1.1.1.1.1.0       W W       # 1.1.1.o. .h f q.l.6.1.1.1.1.1.1.1.",
"1.1.1.1.1.1. .] f G s.s.1.1.1.1.=.        W       #  .[ U U s.l.1.1.1.1.1.W       6 7       s 1.1.1. . .h f q.l.6.1.1.1.1.1.1.1.",
"1.1.1.1.1.1. .[ P ` j.s.1.1.1.1.1.#       o       p  .| g h s.l.1.1.1.1.1.=.      . o       ' 1.1.1.%. .Y U w.l.6.1.1.1.1.1.1.1.",
"1.1.1.1.1.1. .] K ` j.s.1.1.1.1.1.s               '  .| f h s.l.1.1.1.1.1.1.#               =.1.1.1. . .Y U w.l.6.1.1.1.1.1.1.1.",
"1.1.1.1.1.1. .] K ` j.s.1.1.1.1.1.'             . =. .[ L U s.l.1.1.1.1.1.1.s             5 1.1.1.1.%. .U U w.l.6.1.1.1.1.1.1.1.",
"1.1.1.1.1.1. .[ K ` j.s.1.1.1.1.1.1.            6 1. .[ U U s.l.1.1.1.1.1.1.}             s 1.1.1.1. . .U P w.l.6.1.1.1.1.1.1.1.",
"1.1.1.1.1.1. .] g H s.s.1.1.1.1.1.1.5           W 1. .[ U U s.l.1.1.1.1.1.1.1..           } 1.1.1.1. . .C g q.v.6.1.$. .1.1.1.1.",
"1.1.1.1.1.1. .] f G s.s.1.1.1.1.1.1.l           %.1. .[ P U s.j.4.1.1.1.1.1.1.7         . 1.1.1.1.1. . .h f 8.j.6.3.o. .1.1.1.1.",
" . . . . .| h g 2 c 6.6.s.u.1.1. . .Q         o  . .h g q q 3.6.s.s.4.1.1.1.1.W         5  . . . . .C h w 2 =.6.u.s.4.1.$. . . .",
" . . . . .] f f ; x 1.6.l.s.1.1. . . . . . . . . .| f f 2 q 1.6.j.j.6.1.1.1.1.5. . . . . . . . . . .h f 2 2 =.1.s.l.6.1.o. . . .",
"h h h h h g 2 2 2 2 w w N N w w q q q e U U U U h g 2 2 2 2 w w T Y h h h h w w q q q q P U U U g h 2 2 2 2 q w I T C h h h w q ",
"f f f f f t ; ; ; ; ; 2 f d ; ; 2 2 ; q K K K K f f 2 ; ; ; ; 2 K K f f f f 2 ; 2 2 ; 2 K K K K g f 2 ; ; ; ; ; b K g f f f 3 ; ",
"e.e.e.e.e.q.=.>.w.w.w.w.e.q.=.%.; w =.,.C.A.t.t.e.e.w.w.w.w.w.w.t.t.e.e.e.e.:.=.q 2 %.:.m.A.u.t.e.e.w.w.w.w.w.w.e.t.e.e.e.e.w.w.",
"v.v.v.v.l.s.1.6.l.v.l.l.l.s.1.:.; w 1.6.Q.R.l.l.l.l.l.l.l.l.l.l.l.l.l.l.l.j.6.1.q 2 >.5.U.Q.l.l.l.l.l.l.l.l.l.l.l.l.l.l.l.l.l.l.",
"6.6.6.6.6.2. .$.6.6.6.6.6.6.s.e.r C H.A.r.7.6.6.6.6.6.6.6.6.6.6.6.6.6.6.6.6.s.s.g f N.H.r.7.6.6.6.6.6.6.6.6.6.6.6.6.6.6.6.6.6.6.",
"1.1.1.1.1.1. .o.1.1.1.1.1.6.l.e.d C R.U.5.1.1.1.1.1.1.1.1.1.1.1.1.1.1.1.1.3.s.j.h f G.Q.6.1.1.1.1.1.1.1.1.1.1.1.1.1.1.1.1.1.1.1.",
"1.1.1.1.1.1.1.-.o.$.1.1.1.1.6.1.d G l.l.1.1.1.1.1.1.1.1.1.1.1.1.1.1.1.1.1.1.6.6.h f u.l.6.1.1.1.1.1.1.1.1.1.1.1.1.1.1.1.1.1.1.1.",
"1.1.1.1.1.1.1.1. . .1.1.1.1.1.>.d G s.s.1.1.1.1.1.1.1.1.1.1.1.1.1.1.1.1.1.1.1.1.h f s.j.6.1.1.1.1.1.1.1.1.1.1.1.1.1.1.1.1.1.1.1.",
"1.1.1.1.1.1.1.1.1.1.1.1.1.1. . .L Y s.s.1.1.1.1.1.1.1.1.1.1.1.1.1.1.1.1.1.1.%.o.L L u.j.6.1.1.1.1.1.1.1.1.1.1.1.1.1.1.1.1.1.1.1.",
"1.1.1.1.1.1.1.1.1.1.1.1.1.1. .[ K R s.s.1.1.1.1.1.1.1.1.1.1.1.1.1.1.1.1.1.1. . .U K u.j.6.1.1.1.1.1.1.1.1.1.1.1.1.1.1.1.1.1.1.1.",
"1.1.1.1.1.1.1.1.1.1.1.1.1.1. .[ K T s.s.1.1.1.1.1.1.1.1.1.1.1.1.1.1.1.1.1.1. . .U L u.j.6.1.1.1.1.1.1.1.1.1.1.1.1.1.1.1.1.1.1.1.",
"1.1.1.1.1.1.1.1.1.1.1.1.1.1. .[ K T s.s.1.1.1.1.1.1.1.1.1.1.1.1.1.1.1.1.1.1. . .U L u.j.6.1.1.1.1.1.1.1.1.1.1.1.1.1.1.1.1.1.1.1.",
"1.1.1.1.o.$.1.1.o.%.o.o.o. .h g q v 6.6.s.t.4.1.1.1.1.1.o.$.1.1.o.o.o.o.o. .C h q q 3.6.t.s.6.1.1.1.1.1.$.%.1.1.$.o.o.o.o.o.%.o.",
"1.1.1.1. .o.1.1. . . . . .] f f 2 z 1.6.j.s.1.1.1.1.1.1. . .1.1. . . . . . .h f 2 2 1.1.s.j.6.1.1.1.1.1. . .1.1. . . . . . . . .",
"F S R R Y Y R ) k C C C Y I 3 2 2 2 n m H H F F R R ` R Y Y R R k C C C Y Y w 3 2 2 n n H H ) ` ` R R R Y Y R R Y Y C C I Y n x ",
"f g K K K K K L f f f g K K ; 2 2 2 2 2 f f f f K K K K K K K K f f f f L K q 2 2 2 2 2 f f L K K K K K K K K K K K g f L K q 2 "
};
