/* XPM */
static char *books[] = {
/* columns rows colors chars-per-pixel */
"64 64 149 2 ",
"   c #030203",
".  c #080404",
"X  c #0E0709",
"o  c #0E0809",
"O  c #37021D",
"+  c #3B011E",
"@  c #3B0521",
"#  c #3A0822",
"$  c #40071D",
"%  c #6C2F02",
"&  c #6D3002",
"*  c #6C3409",
"=  c #6C380D",
"-  c #703203",
";  c #70360B",
":  c #096C67",
">  c #066B68",
",  c #096D69",
"<  c #05706D",
"1  c #047574",
"2  c #097673",
"3  c #067976",
"4  c #097874",
"5  c #077778",
"6  c #05787A",
"7  c #0A7878",
"8  c #9A6705",
"9  c #976907",
"0  c #9C6B04",
"q  c #976B08",
"w  c #9C6C09",
"e  c #A06E07",
"r  c #D74506",
"t  c #DC4503",
"y  c #DB4905",
"u  c #DE4708",
"i  c #DC490A",
"p  c #F55205",
"a  c #FE5301",
"s  c #F65608",
"d  c #F9CF06",
"f  c #F4CC09",
"g  c #F8CF09",
"h  c #FDD304",
"j  c #F7D10C",
"k  c #FCD509",
"l  c #D3DE2A",
"z  c #D6E027",
"x  c #D4E12B",
"c  c #D8E22A",
"v  c #D78254",
"b  c #DB8555",
"n  c #DC8857",
"m  c #DA8659",
"M  c #D7885A",
"N  c #DA885A",
"B  c #0ADEC7",
"V  c #0DE1C7",
"C  c #05E4CC",
"Z  c #09E4CB",
"A  c #02E7D0",
"S  c #DFBC97",
"D  c #E3BE96",
"F  c #E2BF9A",
"G  c #E4C097",
"H  c #E1C29A",
"J  c #E0C29B",
"K  c #E3C099",
"L  c #E5C198",
"P  c #E5C199",
"I  c #E5C299",
"U  c #E5C298",
"Y  c #E6C398",
"T  c #E5C39B",
"R  c #E6C39B",
"E  c #E7C29B",
"W  c #E0C39C",
"Q  c #E3C29C",
"!  c #E1C49C",
"~  c #E0C59D",
"^  c #E3C49E",
"/  c #E6C49D",
"(  c #E7C49D",
")  c #E4C49E",
"_  c #E5C49E",
"`  c #E6C49E",
"'  c #E8C59D",
"]  c #CF9FEE",
"[  c #CF9FEE",
"{  c #CEA1ED",
"}  c #D0A1EF",
"|  c #CEA2F0",
" . c #CFA4F2",
".. c #CFA4F6",
"X. c #CFA4F7",
"o. c #CEA4F3",
"O. c #CAA3F8",
"+. c #D0A1F0",
"@. c #D1A1F4",
"#. c #D1A1F4",
"$. c #A9EFC5",
"%. c #A7F2C7",
"&. c #A8F1C4",
"*. c #A8F0C6",
"=. c #A8F2C6",
"-. c #ADF5C6",
";. c #AEF7C6",
":. c #ADF5C5",
">. c #A7F7CC",
",. c #A7F7CB",
"<. c #AAF5C8",
"1. c #AAF4C9",
"2. c #AAF5C9",
"3. c #ABF5C8",
"4. c #AAF6C9",
"5. c #ABF6C9",
"6. c #AAF5CA",
"7. c #AAF5CB",
"8. c #A9F6CA",
"9. c #ACF7C9",
"0. c #AEF7CA",
"q. c #ABF5CB",
"w. c #A7F8CC",
"e. c #ACF9C8",
"r. c #ACFAC8",
"t. c #ACFBC9",
"y. c #ACF8CB",
"u. c #ABFACD",
"i. c #AAFACE",
"p. c #ACF9CC",
"a. c #ADF9CC",
"s. c #ACF9CD",
"d. c #ADF9CD",
"f. c #ACFAC8",
"g. c #ADF7D0",
"h. c #96DAEF",
"j. c #93D8F1",
"k. c #92D9F2",
"l. c #94DBF6",
"z. c #95DAF4",
"x. c #97DCF6",
"c. c #96DDF5",
"v. c #98DBF0",
"b. c #95DDF8",
"n. c #95DDFA",
"m. c #93DEFD",
"M. c #93DFFD",
"N. c #94DEFC",
"B. c #90DCFA",
/* pixels */
"& & & & & & & & % & & & & & & & & & & & % % % & & & & & & & & & % % % & & & & & & & & & % % % & & & & & & & & & & & & & & & & & ",
"& & & & & & & & % % & & & & & & & & & & % % & & & & & & & & & & % % & & & & & & & & & & % % & & & & & & & & & & % % & & & & & & ",
"& & & & & & & & % % % % & & & & & & & & % % % % & & & & & & & & % % % % & & & & & & & & % % % % & & & & & & & & % % % % & & & & ",
"& & & & & & & & % % % & & & & & & & & & % % % % & & & & & & & & % % % % & & & & & & & & % % % % & & & & & & & & & & & % & & & & ",
"% % % % . . . . . . . . . . . . . . . . . . . . . . . . . . . . . . . . . . . . . . . . . . . . . . . . . . . . . . . . & & & & ",
"& & % % . . . . . . . . . . . . . . . . . . . . . . . . . . . . . . . . . . . . . . . . . . . . . . . . . . . . . . . . & & & & ",
"& & % % . . O O O O O O O @ *.*.@ O O O O O O O O @ S S @ O 1 1 @ O O O O O O O O O O O O O O O O O O O O O O O O O . . & & & & ",
"& & % % . . O O O O @ @ O @ 5.5.@ O O O O O O O O @ F F @ @ 1 1 @ O O O O O $ $ O O O O O O O O O O O O O O O O @ @ . . & & & & ",
"& & & & . . O O O @ B B @ @ 5.5.@ O O O O O O O O @ F F @ @ 1 1 @ O O O O O r r r r O O O O O O O O O O O O O @ D F . . & & & & ",
"& & & & . . O O O @ C C @ @ 5.5.# @ @ @ O O O O O O L F @ O 1 1 @ O O O O O r t r r O O O O O O O O @ @ O O O @ F F . . & & & & ",
"& & & & . . % % % * C C * * 5.>.2 1 1 2 & % % % % & L D & & 1 1 & % % % % % r t r r % % % % & & % * j.l.* % % * L F . . & & & & ",
"& & & & . . & & - * C C & & 5.>.4 1 1 1 * & * & % & L D ; * 1 1 & % & & & & r r r r % & & & * & & * l.l.* & * * L F . . & & & & ",
"& & & & . . p a a s Z C * & 5.>.4 1 1 2 S L 5.*.& & L L l l 4 1 & % & & & - r r r r - & & & *.5.5.5.N.l.* & B Z L F . . & & & & ",
"& & & & . . p a a s Z C * * 5.>.4 1 1 2 L ' d.5.* & L L c x 4 1 & % & & & - r r r r - & & & 5.d.d.d.N.l.* & C C L F . . & & & & ",
"& & & & . . p a a s Z Z q q 5.>.6 1 1 4 L ' d.5.* & L L c x 4 1 & & D D - - r r t r - & & & 5.d.d.d.N.l.* & C Z L F . . & & & & ",
"& & & & . . p a a s Z C w w 5.>.6 1 1 4 L ' d.5.* * L L c x 4 1 & - D D ; - r t t r - - - * *.d.d.d.N.l.* * C Z L F . . & & & & ",
"& & & & . . p a a s Z C q w d.>.6 1 1 4 L L d.d.l.l.L L c x 4 1 q w L L ..] y r r r d h h k d.d.d.d.M.N.L L Z Z L F . . & & & & ",
"& & & & . . p a a s Z C w w d.>.6 1 1 4 L L d.d.N.N.L L c x 4 1 w w L L ..+.y r r r h h h k d.d.d.d.M.N.L L Z A L F . . & & & & ",
"& & & & . . p a a p Z C q w 5.>.4 1 1 4 L L d.d.M.N.L L c x 4 1 w w L ' ..+.y r t t h h h k e.d.d.d.M.N.L L Z C L F . . & & & & ",
"& & & & . . p a a s Z C w w 5.>.4 1 1 4 L L d.d.N.N.L L c x 4 1 w w L L ..+.y r t t h h h k e.d.d.d.M.N.L L Z Z ~ F . . & & & & ",
"& & & & . . p a a s Z C q w 5.>.4 1 1 4 L L d.d.N.N.L L c x 4 1 w e L ' +.+.y r t t h h h k e.d.d.d.N.N.L L Z Z ~ F . . & & & & ",
"& & & & . . p a a s Z C q q 5.>.6 1 1 4 L L d.d.N.N.L L c x 4 1 w w L ' +.+.y r r t h h h k e.d.d.d.N.N.L ~ Z Z ~ F . . & & & & ",
"& & & & . . p a a s Z C w w d.5.6 1 1 4 L L d.d.N.N.L L c x 4 1 w e L ' +.+.y r r r h h h k d.d.d.d.N.N.L L Z C L F . . & & & & ",
"& & & & . . p a a s Z C w w d.5.6 1 1 4 L L d.d.N.N.L L c x 4 1 w e L ' +.+.y r r r h h h k e.d.d.d.N.N.L ~ C C L F . . & & & & ",
"& & & & . . p a a s Z C q w d.5.6 1 1 4 L L d.d.N.N.L L c x 4 1 w w L ' ..+.y r r r h h h k d.d.d.d.N.N.L L Z Z L F . . & & & & ",
"& & & & . . p a a s Z C q q d.5.6 1 1 4 L L d.d.N.N.L L c x 4 1 w e L L ..+.y r r r h h h k e.d.d.d.N.N.L L Z Z ~ F . . & & & & ",
"& & & & . . p a a s Z C q w 5.5.6 1 1 4 L L d.d.N.N.L L c x 4 1 w w L ' ..+.y r r r h h h k d.d.d.d.N.N.L L Z C L F . . & & & & ",
"& & & & . . p a a s Z C w q 5.5.6 1 1 4 L L d.d.N.N.L L c x 4 1 w e L ' ..+.y r r r h h h k d.d.d.d.N.N.L L Z C L F . . & & & & ",
"& & & & . . p a a s Z C q q 5.>.6 1 1 4 L ' d.d.N.N.L L c x 4 1 w w L ' +.+.y r r t h h h k d.d.d.d.N.N.L L Z Z L F . . & & & & ",
"& & & & . X s a a s V Z q q *.5.4 4 4 4 F L 5.d.N.l.L L x l 4 2 q q D ' +.} u r r r h h h k *.d.d.d.N.l.L ~ Z Z L F X . & & & & ",
"& & & & v b b b b b N N b b N N m m m m N b N N N N N N b b m m m b m m m m b b b b n n b b N N N N N N N N N M m m b v - & & & ",
"& & & & v b b b b b b b b b b b b b b b b b b b b b b b b b b b b b b b b b b b b b b b b b b b b b b b b b b b b b b v & & & & ",
"& & & & & & & % % % & & % % % % % % % % % % & & % & % % & & & & % % & & % % % % % % & & % % % & % % % % % % & & % & % % & & & & ",
"& & & & % % % % % % % % % % % % % % % % % % % % % % % % % % % % % % % % % % % % % % % % % % % % % % % % % % % % % % % % & & & & ",
"& & & & . . . . . . . . . . . . . . . . . . . . . . . . . . . . . . . . . . . . . . . . . . . . . . . . . . . . . . . . & & & & ",
"& & & & . . . . . . . . . . . . . . . . . . . . . . . . . . . . . . . . . . . . . . . . . . . . . . . . . . . . . . . . & & & & ",
"& & & & . . O O O O O @ 1 1 @ O O O O O O O O O O O O O O @ > , *.*.j f O O O O 8 8 8 8 O O O O O O O O O O O O O O . . % % & & ",
"& & & & . . O O O O O @ 1 1 @ O O O O O @ @ O O O O O O O @ > > >.d.k h O O O O 8 w w 8 O O O O O $ O O O O O O O O . . % % & % ",
"& & & & . . f d d f O @ 1 1 @ O O O 8 w l l @ O O O O O O @ , > >.d.k h O O O O 8 w w 8 O O O O r r $ O O O O O O O . . % % % % ",
"& & & & . . h h h h O O 1 1 @ @ @ @ 8 w c x O O O O O O O O > > >.d.k h @ O @ @ 8 w w 8 O O O O r r $ O O O O O @ @ . . % % % % ",
"& & & & . . h h h h & & 1 4 >.5...{ w w z z & & 2 2 & % % & > < >.d.k h 2 1 1 2 w w w 8 & % % & r r % % 8 w 8 9 1 1 . . & & & & ",
"& & & & . . h h h h * * 1 4 >.g...+.w w z z & & 1 1 & & & & > < >.d.k h 4 1 1 1 w w w 8 & & & & r r & & w w w w 1 1 . . & & & & ",
"& & & & . . h h h k l.l.6 6 >.g...+.w w z z & & 1 2 r r r r : < >.d.k d 4 1 1 1 w w w w B C C B r r & & w w w w 1 1 . . & & & & ",
"& & & & . . h h h k l.N.6 6 >.g.....w w z z * * 1 2 r r r r : < >.e.k d 4 1 1 1 w w w w C C C Z r r ; ; w w w w 1 1 . . & & & & ",
"& & & & . . h h h k l.N.6 4 >.g...+.w w z x { { 5 2 r r r r : < >.d.k d 4 1 1 1 w w w w C C A Z r y ] { w w w w 1 1 . . & & & & ",
"& & & & . . h h h k l.N.6 4 >.5...+.w w z c ....2 2 r r r r : < >.d.k d 4 1 1 1 w w w w C C A Z r r +.+.q w w w 1 1 . . & & & & ",
"& & & & . . h h h k l.N.6 4 >.g...+.w w z x +...2 2 r r r r : < >.e.k d 4 1 1 1 w w w w C C C Z r r +...w w w w 1 1 . . & & & & ",
"& & & & . . h h h k l.N.6 4 >.g.....w w z x ....2 2 r r r r : < >.e.k d 4 1 1 1 w w w w C C A Z r r +...w w w w 1 1 . . & & & & ",
"& & & & . . h h h k l.B.6 4 >.g.....w w z x ....2 2 r t r r : < >.e.k h 4 1 1 1 w w w w C C C Z r r +.+.q w w w 1 1 . . & & & & ",
"& & & & . . h h h k l.B.6 4 w.g.....w w z x ....4 2 r t r r : < >.e.k h 4 1 1 1 w w w w C C C Z r r +...q w w w 1 1 . . & & & & ",
"& & & & . . h h h k l.N.6 4 w.g.....w w z c ....2 2 r r r r : < >.e.k d 4 1 1 1 w w w w C C C Z r y +...q w w w 1 1 . . & & & & ",
"& & & & . . h h h k l.N.6 4 5.g.....w w z c ....4 2 r r r r : < >.e.k d 4 1 1 1 w w w w C C C Z r u +...q w w w 1 1 . . & & & & ",
"& & & & . . h h h k l.N.6 4 >.g.....w w z x ....2 2 r r r r : < >.d.k d 4 1 1 1 w w w w C C A Z r r +...w w w w 1 1 . . & & & & ",
"& & & & . . h h h k l.N.6 4 >.g.....w w z x ....2 2 r r r r : < >.d.k h 4 1 1 1 w w w w C C A Z r r +.{ w w w w 1 1 . . & & & & ",
"& & & & . . h h h k l.N.6 4 >.g...+.w w z x ....2 2 r r r r : < >.d.k h 4 1 1 1 w w w w C C A Z r r +.{ w w w w 1 1 . . & & & & ",
"& & & & . . h h h k l.B.6 4 >.g...+.w w z x ....2 2 r r r r : < >.d.k h 4 1 1 1 w w w w C C A Z r y +.+.w w w w 1 1 . . & & & & ",
"& & & & . . h h h k l.B.6 4 5.g...+.w w z c ....2 2 r r r r : < >.d.k h 4 1 1 1 w w w w C C A Z u y +.+.q w w w 1 1 . . & & & & ",
"& & & & . o k h h k v.l.7 4 5.5.{ { q e l l { ..4 2 y t r y : , 5.*.k g 4 2 2 2 q w w q V C C V u u } +.q w w w 2 2 . . % & & & ",
"& & & & v b b b b b N N m m b N m m b b n b m m m m b b b b b b N N b b m m m m b b b b m m N m b b m N b b b b m m b v & & & & ",
"& & & & b b b b b b b b b b b b b b b b b b b b b b b b b b b b b b b b b b b b b b b b b b b b b b b b b b b b b b b b & & & & ",
"& & & % - & - & - & - - & - & & - - & & & & - - - - & - & - & & & - & & - & - & & - - & & - & - & - & & - & - - - & & - % & & & ",
"& & & & & & & & & & & & & & & & & & & & & & & & & & & & & & & & & & & & & & & & & & & & & & & & & & & & & & & & & & & & & & & & ",
"& & & & & & & & & & & & & & & & & & & & & & & & & & & & & & & & & & & & & & & & & & & & & & & & & & & & & & & & & & & & & & & & ",
"& & & & & & & & & & & & & & & & & & & & & & & & & & & & & & & & & & & & & & & & & & & & & & & & & & & & & & & & & & & & & & & & "
};
