/* XPM */
static char *books_non_square[] = {
/* columns rows colors chars-per-pixel */
"65 65 201 2 ",
"   c #0B0504",
".  c #1C030F",
"X  c #140904",
"o  c #1C0A11",
"O  c #3D1B03",
"+  c #36021C",
"@  c #39031E",
"#  c #270D10",
"$  c #3A0520",
"%  c #321E2F",
"&  c #2A2B3A",
"*  c #142A26",
"=  c #4C1413",
"-  c #4A1612",
";  c #741C14",
":  c #5A2816",
">  c #4C2E06",
",  c #642806",
"<  c #6C2F02",
"1  c #642B0B",
"2  c #6D3002",
"3  c #6C3308",
"4  c #703203",
"5  c #763B04",
"6  c #6A2F15",
"7  c #4D2529",
"8  c #38523B",
"9  c #774C11",
"0  c #554E2C",
"q  c #6A5A3A",
"w  c #75512F",
"e  c #50713E",
"r  c #526A3A",
"t  c #7A6A38",
"y  c #1D3B47",
"u  c #253645",
"i  c #4F3A44",
"p  c #1E404D",
"a  c #2D5445",
"s  c #3D724C",
"d  c #066C6A",
"f  c #0E6165",
"g  c #057674",
"h  c #087774",
"j  c #087875",
"k  c #067878",
"l  c #1C7871",
"z  c #176965",
"x  c #276963",
"c  c #57424B",
"v  c #4B6E4C",
"b  c #6D4D69",
"n  c #787F66",
"m  c #6B605A",
"M  c #963804",
"N  c #8D2F09",
"B  c #B53D06",
"V  c #A8340A",
"C  c #C43D09",
"Z  c #88550C",
"A  c #9C6C09",
"S  c #996A08",
"D  c #896D16",
"F  c #846B18",
"G  c #966E14",
"H  c #A26E10",
"J  c #A5750F",
"K  c #835932",
"L  c #8E5F35",
"P  c #995927",
"I  c #A45A2B",
"U  c #AF7234",
"Y  c #D74506",
"T  c #D94605",
"R  c #DF4B05",
"E  c #DB4C0D",
"W  c #C34309",
"Q  c #F75507",
"!  c #FE5301",
"~  c #E24D03",
"^  c #E57605",
"/  c #D75A39",
"(  c #DC6D30",
")  c #E56C24",
"_  c #895751",
"`  c #8D7750",
"'  c #AA7A4A",
"]  c #A26F43",
"[  c #9E7368",
"{  c #D17D4F",
"}  c #CE7B4B",
"|  c #C56B6D",
" . c #7D822D",
".. c #6D9146",
"X. c #768F45",
"o. c #68A952",
"O. c #5E994E",
"+. c #91AA36",
"@. c #96A63B",
"#. c #908726",
"$. c #C4BC1E",
"%. c #D9AA05",
"&. c #C3BB23",
"*. c #E8B121",
"=. c #E6C004",
"-. c #FDD305",
";. c #FCD408",
":. c #F9CD0C",
">. c #E5DF3F",
",. c #D6E12A",
"<. c #D6E027",
"1. c #D4DB2C",
"2. c #BF944C",
"3. c #B3855B",
"4. c #AC8B49",
"5. c #9F9878",
"6. c #D48050",
"7. c #DB8656",
"8. c #DA8659",
"9. c #DA885A",
"0. c #C2934C",
"q. c #D8B24F",
"w. c #CF9673",
"e. c #DFA277",
"r. c #C9A77B",
"t. c #DED45A",
"y. c #CCC240",
"u. c #E6DF40",
"i. c #D2E86F",
"p. c #D2E871",
"a. c #CFE470",
"s. c #D0DB6B",
"d. c #D57D91",
"f. c #1F8B92",
"g. c #2E988E",
"h. c #30988A",
"j. c #208B92",
"k. c #368A85",
"l. c #3DBC9A",
"z. c #1AB2A0",
"x. c #56B39C",
"c. c #54B395",
"v. c #5387A4",
"b. c #6EA794",
"n. c #14C9B3",
"m. c #2ECEAD",
"M. c #32C8A8",
"N. c #1ADBC1",
"B. c #05E4CC",
"V. c #09E4CB",
"C. c #23E0C5",
"Z. c #20E2C8",
"A. c #91AC8E",
"S. c #A0AA8D",
"D. c #A9A982",
"F. c #BEB59E",
"G. c #A4A4AF",
"H. c #CDAD8C",
"J. c #CEA788",
"K. c #C6B78F",
"L. c #E3BF98",
"P. c #D1B7AC",
"I. c #D1B9B0",
"U. c #C8B1A7",
"Y. c #D397A1",
"T. c #9DCB9E",
"R. c #A7D79F",
"E. c #AFC397",
"W. c #98C7A3",
"Q. c #84DBB9",
"!. c #87DBB7",
"~. c #9AD4AD",
"^. c #A9DAA1",
"/. c #AFEABE",
"(. c #E5C199",
"). c #C2C7A1",
"_. c #C4CCBF",
"`. c #C0E6BB",
"'. c #8BBBCB",
"]. c #C598C6",
"[. c #CF9EDF",
"{. c #DDB5C2",
"}. c #C7B2D7",
"|. c #C6B9EC",
" X c #CFA3F5",
".X c #D0A2F1",
"XX c #D0A1EC",
"oX c #D19FE1",
"OX c #A4DAD1",
"+X c #ACD2C1",
"@X c #AAF7CC",
"#X c #ACF9CC",
"$X c #A8F3D7",
"%X c #A7F3D7",
"&X c #94DEFB",
"*X c #94DBF5",
"=X c #9CD2E4",
"-X c #A3D8E9",
";X c #9DE8EA",
":X c #97CCC1",
">X c #C4CDC1",
/* pixels */
"2 2 2 2 2 2 2 2 < 2 2 2 2 2 2 2 2 2 2 2 < < < 2 2 2 2 2 2 2 2 2 < < < < 2 2 2 2 2 2 2 2 2 < < < 2 2 2 2 2 2 2 2 2 2 2 2 2 2 2 2 2 ",
"2 2 2 2 2 2 2 2 < < 2 2 2 2 2 2 2 2 2 2 < < 2 2 2 2 2 2 2 2 2 2 < < < 2 2 2 2 2 2 2 2 2 2 < < 2 2 2 2 2 2 2 2 2 2 < < 2 2 2 2 2 2 ",
"2 2 2 2 2 2 2 2 < < < < 2 2 2 2 2 2 2 2 < < < < 2 2 2 2 2 2 < < < < < < < 2 2 2 2 2 2 2 2 < < < < 2 2 2 2 2 2 2 2 < < < < 2 2 2 2 ",
"2 2 2 2 2 2 2 2 < < < 2 2 2 2 2 2 2 2 2 < < < < 2 2 2 2 2 < < < < < < < < 2 2 2 2 2 2 2 2 < < < < 2 2 2 2 2 2 2 2 2 2 2 < 2 2 2 2 ",
"< < < < X                                                                                                               X 2 2 2 2 ",
"2 2 < <                                                                                                                   2 2 2 2 ",
"2 2 < <     + + + + + + + + A.~.i + + + + + + + + + ` H.m + y d y + + + + + + + + + + + + + + + + + + + + + + + + + +     2 2 2 2 ",
"2 2 < <     + + + + $ $ @ $ W.@Xc @ + + + + + + + @ [ L._ $ p g y @ + + + + @ @ @ + + + + + + + + + + + + + + + + $ +     2 2 2 2 ",
"2 2 2 2     + + + $ z.n.& $ W.@Xc @ + + + + + + + $ [ L._ $ p g y @ + + + + ; C C C N + @ @ @ + + + + + @ @ @ @ 7 J.r.    2 2 < 2 ",
"2 2 2 2     + + + $ n.B.u $ W.@Xc $ $ $ @ + + + + + [ (._ $ y g y @ + + + @ ; T T Y V + @ @ @ @ + + + $ @ @ @ @ 7 L.H.    2 2 2 2 ",
"2 2 2 2     , , , 1 n.B.0 1 T.@Xk.f f f 0 , , , , , 3.L.] , a g 8 , , , , , M T T Y B , , , , , , 1 w '.G.1 , , 6 (.H.    < 2 < 2 ",
"2 2 2 2     , 2 2 3 n.B.0 < T.@Xh.g g g 0 2 2 2 < 2 3.L.] 3 a g 8 2 < 2 2 2 M T T Y B < 2 2 2 2 2 2 q *X'.3 2 2 9 (.H.    < < < 2 ",
"2 2 2 2     W ~ ~ R m.B.0 2 T.@Xg.g g g 5.r.E.W.t 2 3.(.y.&.O.g 8 2 2 2 2 2 M Y Y Y B 2 2 2 w W.T.T.~.&X'.2 0 z.M.(.H.    2 2 2 2 ",
"2 2 2 2     R ! ! Q m.B.0 3 T.@Xh.g g g S.(.`.@X` 2 3.(.t.,.o.g 8 2 2 2 2 2 M Y Y Y B 2 2 2 t @X#X#X$X&X'.2 0 B.C.(.H.    2 2 2 2 ",
"2 2 2 2     R ! ! Q m.V.t Z R.@Xg.g g h S.(.`.@X` 2 3.(.t.,.o.g 8 2 L r.] 4 M Y T T B 2 2 2 t @X#X#X$X&X'.2 0 B.C.(.H.    2 2 2 2 ",
"2 2 2 2     R ! ! Q m.B.#.A R.@Xg.g g j S.(.`.@X` 3 3.(.t.,.o.g 8 2 ] L.3.4 M T T T B 4 2 2 t @X#X#X$X&X'.3 0 B.C.(.H.    2 2 2 2 ",
"2 2 2 2     R ! ! Q m.B. .A ^.@Xg.g g g S.(.`.#X:X'.U.(.t.,.o.g r Z 2.L.U.].| T T T ^ %.%.%.y.@X#X#X%X&X=Xw.D.V.C.(.H.    2 2 2 2 ",
"2 2 2 2     R ! ! Q m.B. .A ^.@Xg.g g g S.(.`.#X;X&X>X(.t.,.o.g e A 2.(.{. Xd.T Y Y ^ -.-.-.u.#X#X#X$X&X-X(.).V.Z.(.H.    2 2 2 2 ",
"2 2 2 2     R ! ! Q m.B. .A ^.@Xh.g g g S.(.`.#X;X&X>X(.t.,.o.g e A 2.(.{. Xd.T T T ^ -.-.-.>.#X#X#X$X&X-X(.).V.C.(.H.    2 2 2 2 ",
"2 2 2 2     R ! ! Q m.B. .A R.@Xh.g g g S.(.`.#X;X&X>X(.t.,.o.g e A 2.(.{. Xd.R T T ^ -.-.-.>.#X#X#X%X&X-X(.).V.C.(.H.    2 2 2 2 ",
"2 2 2 2     R ! ! Q m.B. .A R.@Xh.g g h S.(.`.#X;X&X>X(.t.,.o.g e A 2.(.{..Xd.T T T ^ -.-.-.>.#X#X#X%X&X-X(.).V.C.(.H.    2 2 2 2 ",
"2 2 2 2     R ! ! Q m.B. .A R.@Xg.g g h S.(.`.#X;X&X>X(.t.,.o.g e A 2.(.{..Xd.T Y T ^ -.-.-.>.#X#X#X%X&X-X(.).V.C.(.H.    2 2 2 2 ",
"2 2 2 2     R ! ! Q m.B. .A ^.@Xg.g g h S.(.`.#X;X&X>X(.t.,.o.g e A 2.(.{..Xd.T Y T ^ -.-.-.u.#X#X#X%X&X-X(.).V.C.(.H.    2 2 2 2 ",
"2 2 2 2     R ! ! Q m.B.#.A ^.@Xg.g g h S.(.`.#X;X&X>X(.t.,.o.g e A 0.(.{..Xd.T Y Y ^ -.-.-.>.#X#X#X%X&X-X(.).B.C.(.H.    2 2 2 2 ",
"2 2 2 2     R ! ! Q m.B. .A ^.@Xg.g g g S.(.`.#X;X&X>X(.t.,.o.g e A 2.(.{..Xd.R Y Y ^ -.-.-.u.#X#X#X$X&X-X(.).B.C.(.H.    2 2 2 2 ",
"2 2 2 2     R ! ! Q m.B. .A ^.@Xg.g g g S.(.`.#X;X&X>X(.t.,.o.g e A 0.(.{..Xd.R Y Y ^ -.-.-.>.#X#X#X$X&X-X(.).V.C.(.H.    2 2 2 2 ",
"2 2 2 2     R ! ! Q m.B. .A ^.@Xg.g g h S.(.`.#X;X&X>X(.t.,.o.g e A 2.(.{. Xd.R Y Y ^ -.-.-.u.#X#X#X$X&X-X(.).V.C.(.H.    2 2 2 2 ",
"2 2 2 2     R ! ! Q m.B. .A R.@Xg.g g h S.(.`.#X;X&X>X(.t.,.o.g e A 0.(.{. Xd.R Y Y ^ -.-.-.u.#X#X#X$X&X-X(.).V.C.(.H.    2 2 2 2 ",
"2 2 2 2     R ! ! Q m.B. .A R.@Xg.g g g S.(.`.#X;X&X>X(.t.,.o.g e A 0.(.{. Xd.T Y T ^ -.-.-.u.#X#X#X$X&X-X(.).V.C.(.H.    2 2 2 2 ",
"2 2 2 2     ~ ! ! Q m.V. .S R.@Xh.g g j S.(.`.#X;X&X_.(.t.,.o.h e A 2.(.{. Xd.T Y T ^ -.-.-.u.@X#X#X$X&X-X(.).V.C.(.H.    2 2 2 2 ",
"2 2 2 2 w w ( ) ) ) 5.b.4.U r.K.5.n n n w.e.H.K.F.F.J.e.q.q.4.n ` U 0.e.J.Y.w.( ( ( ( *.*.*.q.K.K.K.K.F.U.e.r.b.A.e.w.w w 2 2 2 2 ",
"2 2 2 2 { 7.7.7.7.7.7.8.7.7.7.7.7.7.7.7.7.7.7.7.7.7.7.7.7.7.7.7.7.7.7.7.7.7.7.7.7.7.7.7.7.7.7.8.8.8.8.8.7.8.8.7.7.7.7.7.{ 2 2 2 2 ",
"2 2 2 2 P I I I I I I I I I I I I I I I I I I I I I I I I I I I I I I I I I I I I I I I I I I I I I I I I I I I I I I I P 2 2 2 2 ",
"2 2 2 2 < < < < < < < < 2 < < < < < < < < < 2 2 < < < < < < < < < < < 2 < < < < < < < < < < < < < < < < < < < < < < < < < 2 2 2 2 ",
"2 2 2 2 - O O O O O O O O O O O O O O O O O O O O O O O O O O O O O O O O O O O O O O O O O O O O O O O O O O O O O O O - 2 2 2 2 ",
"2 2 2 2                                                                                                                   2 2 2 2 ",
"2 2 2 2     . . . . . . * * o . . . . . . . . . . . . . . . * * a v r 9 > . . . # > > > O . . . . . . . . . . . . . .     2 2 2 2 ",
"2 2 2 2     + + + + + $ f g % $ + + + + @ @ @ + + + + + + $ y d x.@Xa.;.J + + + : S A A 9 + + + + @ @ + @ @ + + + + +     < < 2 2 ",
"2 2 2 2     9 Z Z Z = $ f g % @ + + : : w w 7 @ + + + + + $ y d x.#Xp.-.J + + + : A A A 9 + + + = ; ; @ @ + + + + + +     < < 2 < ",
"2 2 2 2     =.-.-.:.: @ f g % @ @ @ 9 A &.,.w @ + + + + + @ y d x.#Xp.-.J @ + @ : A A A 9 + + + = Y B @ @ + + + + @ +     < < < < ",
"2 2 2 2     =.-.-.-.6 = f g v m b b P A $.,.9 = % & % = = = p d x.#Xp.-.#.& & u 0 A A A Z = = = 1 Y B = = : : : : u &     < < < < ",
"2 2 2 2     =.-.-.-.Z 2 z j Q.@X|. X' A $.<.S 2 a h 0 2 2 2 8 d x.#Xp.-.+.g g g s A A A Z 2 < < N Y W < 5 A A A F g d     2 2 2 2 ",
"2 2 2 2     =.-.-.-.` m l j Q.@X|..X' A $.<.S 2 a g 0 M M M 0 d x.#Xp.;.+.g g g s A A A F v v v q Y W 2 5 A A A D g d     2 2 2 2 ",
"2 2 2 2     =.-.-.;.OX&Xj.k Q.@X|..X' A $.<.G 2 a g K Y Y Y q d x.#Xp.-.+.g g g s A A A ..B.B.B.l.Y W 2 5 A A A D g d     2 2 2 2 ",
"2 2 2 2     =.-.-.;.OX&Xj.k Q.@X|. X' A $.,.4._ x h K Y Y Y q d x.#Xi.;.+.g g g s A A A ..B.B.B.l.T W _ _ A A A D g d     2 2 2 2 ",
"2 2 2 2     =.-.-.;.OX&Xj.j Q.@X|..X' A $.,.I. Xv.h K Y Y Y q d x.#Xp.;.+.g g g s A A A ..B.B.B.l.T / XX].A A A D g d     2 2 2 2 ",
"2 2 2 2     =.-.-.;.OX&Xj.j Q.@X|..X' A $.,.I. Xv.h K Y Y Y q d x.#Xp.;.+.g g g s A A A ..B.B.B.l.Y / .X].A A A D g d     2 2 2 2 ",
"2 2 2 2     =.-.-.;.OX&Xj.j Q.@X|..X' A $.,.P. Xv.h K Y Y Y q d x.#Xi.;.+.g g g s A A A ..B.B.B.l.Y / .X].A A A D g d     2 2 2 2 ",
"2 2 2 2     =.-.-.;.OX&Xj.j Q.@X|. X' A $.,.I. Xv.h K T T Y q d x.#Xi.-.+.g g g s A A A ..B.B.B.l.Y / .X].A A A D g d     2 2 2 2 ",
"2 2 2 2     =.-.-.;.OX&Xf.j Q.@X|. X' A $.,.I. Xv.h K T T Y q d x.#Xi.-.+.g g g s A A A ..B.B.B.l.Y / .X].A A A D g d     2 2 2 2 ",
"2 2 2 2     =.-.-.;.OX&Xf.j Q.@X|. X' A $.,.I. Xv.h K T T Y q d x.#Xi.-.+.g g g s A A A ..B.B.B.l.Y / .X].A A A D g d     2 2 2 2 ",
"2 2 2 2     =.-.-.;.OX&Xj.j Q.@X|. X' A $.,.I. Xv.h K Y Y Y q d x.#Xi.;.+.g g g s A A A ..B.B.B.l.T / .X].A A A D g d     2 2 2 2 ",
"2 2 2 2     =.-.-.;.OX&Xj.j !.@X|. X' A $.,.I. Xv.h K Y Y Y q d x.#Xi.;.+.g g g s A A A ..B.B.B.l.T / .X].A A A D g d     2 2 2 2 ",
"2 2 2 2     =.-.-.;.OX&Xj.j Q.@X|. X' A $.,.I. Xv.h K Y Y Y q d x.#Xp.-.+.g g g s A A A ..B.B.B.l.Y / .X].A A A D g d     2 2 2 2 ",
"2 2 2 2     =.-.-.;.OX&Xj.j Q.@X|. X' A $.,.I. Xv.h K Y Y Y q d x.#Xp.-.+.g g g s A A A ..B.B.B.l.Y / XX].A A A D g d     2 2 2 2 ",
"2 2 2 2     =.-.-.;.OX&Xj.j Q.@X|..X' A $.,.I. Xv.h K Y Y Y q d x.#Xp.-.+.g g g s A A A ..B.B.B.l.Y / .X].A A A D g d     2 2 2 2 ",
"2 2 2 2     =.-.-.;.OX&Xf.j Q.@X|..X' A $.,.I. Xv.h K Y Y Y q d x.#Xp.-.+.g g g s A A A ..B.B.B.l.T / .X].A A A D g d     2 2 2 2 ",
"2 2 2 2     =.-.-.;.OX&Xj.j !.@X|..X' A $.,.I. Xv.h K T Y Y q d x.@Xp.-.+.g g g s A A A ..B.B.B.l.T / .X].A A A D g d     2 2 2 2 ",
"2 2 2 2 # # =.:.:.:.+X=Xk.l ~./.}.[.' H &.1.U.oXv.l L E E E t z b./.s.:.@.l l l v H H H X.n.N.N.c.E / oX].A H H G l z o # < 2 2 2 ",
"2 2 2 2 { 7.7.7.7.7.8.9.8.8.7.8.8.8.7.7.7.7.7.8.8.8.7.7.7.7.7.7.8.9.8.7.7.8.8.8.7.7.7.7.7.8.8.8.8.7.7.8.8.7.7.7.7.8.8.7.{ 2 2 2 2 ",
"2 2 2 2 } 6.6.6.6.6.6.6.6.6.6.6.6.6.6.6.6.6.6.6.6.6.6.6.6.6.6.6.6.6.6.6.6.6.6.6.6.6.6.6.6.6.6.6.6.6.6.6.6.6.6.6.6.6.6.6.} 2 2 2 2 ",
"2 2 2 < 4 2 4 2 4 2 2 4 2 2 2 2 2 4 2 2 2 2 2 4 4 4 2 2 2 2 2 2 2 2 2 2 2 2 2 2 2 2 4 2 2 2 2 2 4 2 4 2 2 4 2 4 4 2 2 2 4 < 2 2 2 ",
"2 2 2 2 2 2 2 2 2 2 2 2 2 2 2 2 2 2 2 2 2 2 2 2 2 2 2 2 2 2 2 2 2 2 2 2 2 2 2 2 2 2 2 2 2 2 2 2 2 2 2 2 2 2 2 2 2 2 2 2 2 2 2 2 2 ",
"2 2 2 2 2 2 2 2 2 2 2 2 2 2 2 2 2 2 2 2 2 2 2 2 2 2 2 2 2 2 2 2 2 2 2 2 2 2 2 2 2 2 2 2 2 2 2 2 2 2 2 2 2 2 2 2 2 2 2 2 2 2 2 2 2 ",
"2 2 2 2 2 2 2 2 2 2 2 2 2 2 2 2 2 2 2 2 2 2 2 2 2 2 2 2 2 2 2 2 2 2 2 2 2 2 2 2 2 2 2 2 2 2 2 2 2 2 2 2 2 2 2 2 2 2 2 2 2 2 2 2 2 "
};
