/* XPM */
static char *east[] = {
/* columns rows colors chars-per-pixel */
"64 64 165 2 ",
"   c #0E0C0C",
".  c #0F0D10",
"X  c #110E12",
"o  c #151314",
"O  c #191516",
"+  c #15121B",
"@  c #191718",
"#  c #1B191A",
"$  c #211E1E",
"%  c #191625",
"&  c #1A1827",
"*  c #1D192E",
"=  c #1F1B36",
"-  c #1F1C38",
";  c #2D1A25",
":  c #361E2F",
">  c #231C37",
",  c #211E38",
"<  c #281F38",
"1  c #252424",
"2  c #2B2629",
"3  c #2E2D2D",
"4  c #3A202F",
"5  c #302E2F",
"6  c #34302F",
"7  c #25223B",
"8  c #2A253D",
"9  c #29283D",
"0  c #3F2236",
"q  c #3E2438",
"w  c #3D2A39",
"e  c #273839",
"r  c #2A3839",
"t  c #333131",
"y  c #3D3636",
"u  c #3E373C",
"i  c #3E3A39",
"p  c #452337",
"a  c #452538",
"s  c #442A3B",
"d  c #492B3D",
"f  c #44303E",
"g  c #4B313F",
"h  c #423C3B",
"j  c #2C2741",
"k  c #2D2A41",
"l  c #332D43",
"z  c #2E3043",
"x  c #2C3F44",
"c  c #333145",
"v  c #383347",
"b  c #343F44",
"n  c #4D2F42",
"m  c #473240",
"M  c #4D3342",
"N  c #4E3845",
"B  c #4E3E49",
"V  c #513345",
"C  c #513847",
"Z  c #543648",
"A  c #543B4C",
"S  c #2E4646",
"D  c #2E4847",
"F  c #334346",
"G  c #314748",
"H  c #3A464A",
"J  c #344949",
"K  c #3B4B4C",
"L  c #3C4E51",
"P  c #3E5152",
"I  c #474647",
"U  c #494747",
"Y  c #4E464A",
"T  c #494848",
"R  c #594A4F",
"E  c #56514F",
"W  c #434D51",
"Q  c #5C4F52",
"!  c #415254",
"~  c #5D5455",
"^  c #5D5957",
"/  c #5B525B",
"(  c #605656",
")  c #615857",
"_  c #615758",
"`  c #645C5A",
"'  c #67605E",
"]  c #5E5D65",
"[  c #665F60",
"{  c #666161",
"}  c #696362",
"|  c #65656A",
" . c #6C666A",
".. c #676C6C",
"X. c #6B6B6D",
"o. c #716C6F",
"O. c #70706F",
"+. c #6E6C71",
"@. c #716E72",
"#. c #6E7174",
"$. c #6F7279",
"%. c #767676",
"&. c #787576",
"*. c #767678",
"=. c #787778",
"-. c #777879",
";. c #7B797B",
":. c #7C7E81",
">. c #857583",
",. c #887786",
"<. c #857986",
"1. c #887887",
"2. c #867B8B",
"3. c #8B7C8B",
"4. c #7D8284",
"5. c #7D919B",
"6. c #8C828D",
"7. c #80898D",
"8. c #8E8491",
"9. c #8F8A96",
"0. c #918592",
"q. c #938493",
"w. c #928693",
"e. c #908591",
"r. c #938694",
"t. c #948795",
"y. c #938694",
"u. c #958896",
"i. c #968997",
"p. c #968897",
"a. c #978998",
"s. c #978A99",
"d. c #978A99",
"f. c #988A99",
"g. c #988A99",
"h. c #95909E",
"j. c #8793A0",
"k. c #869BA6",
"l. c #889AA7",
"z. c #8C9EA6",
"x. c #899BA7",
"c. c #8F9EA8",
"v. c #87A2AD",
"b. c #8FA3AC",
"n. c #8EA4AD",
"m. c #8FA4AE",
"M. c #8CA4AE",
"N. c #90A0AB",
"B. c #91A2AE",
"V. c #8FA5B1",
"C. c #90A7B1",
"Z. c #92A4B0",
"A. c #90A7B1",
"S. c #90A8B2",
"D. c #94A8B5",
"F. c #95A9B6",
"G. c #95AAB7",
"H. c #96ABB7",
"J. c #93AAB6",
"K. c #93ADB9",
"L. c #94AEBA",
"P. c #95B0BC",
"I. c #96B2BE",
"U. c #95B2BE",
"Y. c #95B1BD",
/* pixels */
"a.a.a.e.%.| - k %.4.I.H.a.a.a.a.a.a.a.a.a.a.a.a.a.e.*.@.8 8 %.%.I.I.a.a.a.a.a.a.a.a.a.a.a.a.a.a.a.a.;.%.k , X.%.H.I.h.a.a.a.a.a.",
"e.e.e.6.;.+.< l 4.7.n.c.e.e.e.e.e.e.e.e.e.e.e.e.e.6.;.*.8 8 :.4.n.n.8.e.e.e.e.e.e.e.e.e.e.e.e.e.e.e.;.;.l < $.4.z.n.9.e.e.e.e.e.",
"%.%.%.;.a.,.p A I.C.%.%.%.%.%.%.%.%.%.%.%.%.%.%.%.;.i.e.d d K.I.%.%.%.%.%.%.%.%.%.%.%.%.%.%.%.%.%.%.e.i.Z a z.I.4.%.%.%.%.%.%.%.",
"%.%.%.;.e.>.p A H.N.%.%.%.%.%.%.%.%.%.%.%.%.%.%.%.=.8.3.d d C.H.%.%.%.%.%.%.%.%.%.%.%.%.%.%.%.%.%.%.6.e.Z a j.H.:.%.%.%.%.%.%.%.",
"%.%.%.%.%. .p Z a.e.%.%.%.%.%.%.%.%.%.%.%.%.%.%.%.%.%.%.a d e.i.%.%.%.%.%.%.%.%.%.%.%.%.%.%.%.%.%.%.%.%.M a ,.i.;.%.%.%.%.%.%.%.",
"%.%.%.%.%.} s A a.e.%.%.%.%.%.%.%.%.%.%.%.%.%.%.%.%.%.X.s m e.a.%.%.%.%.%.%.%.%.%.%.%.%.%.%.%.%.%.%.%.%.M s 1.a.;.%.%.%.%.%.%.%.",
"%.%.%.%.) ~ D ! a.e.%.%.%.%.%.%.%.%.%.%.%.%.%.%.%.%.) ^ J J e.a.%.%.%.%.%.%.%.%.%.%.%.%.%.%.%.%.%.%.) ) J J 2.a.;.%.%.%.%.%.%.%.",
"%.%.%.%.) ~ D ! a.e.%.%.%.%.%.%.%.%.%.%.%.%.%.%.%.%.) ^ J J e.a.%.%.%.%.%.%.%.%.%.%.%.%.%.%.%.%.%.%.) ) H F 2.a.;.%.%.%.%.%.%.%.",
"%.%.%.%.) ~ D ! a.e.%.%.%.%.%.%.%.%.%.%.%.%.%.%.) ) ) ^ J J e.i.%.%.%.%.%.%.%.%.%.%.%.%.%.%.%.%.%.%.) ) d a 1.a.;.%.%.%.%.%.%.%.",
"%.%.%.%.) ~ F W a.e.%.%.%.%.%.%.%.%.%.%.%.%.%.%.' ' ) ^ F H e.a.%.%.%.%.%.%.%.%.%.%.%.%.%.%.%.%.%.%.) ) m s 1.a.;.%.%.%.%.%.%.%.",
"%.%.%.%.) ~ p Z f.e.%.%.%.%.%.%.%.%.%.%.%.%.) ) %.%.) ( a d e.a.%.%.%.%.%.%.%.%.%.%.%.%.%.%.%.%.%.%.) ) J J 2.a.;.%.%.%.%.%.%.%.",
"%.%.%.X.~ R a M e.6.;.;.%.%.%.%.%.%.%.%.%.%.) ) %.%.~ Q a s 6.e.;.;.%.%.%.%.%.%.%.%.%.%.%.%.%.%.%.%._ ~ F D 1.e.:.;.%.%.%.%.%.%.",
") ) ) ~ a q - k %.;.i.e.%.%.) ) ) ) ) h i i i i i y ; ; % & I T / / T T T T T T i i U T ^ ) ) ) ) ) d a , , X.%.e.a.;.%.%.%.%.%.",
"^ ~ ~ R a q , k X.@.3.1.#.X.~ ~ ~ ~ ~ o                                                 Y ~ ~ ~ ^ ^ s a , , ] X.1.3.@.o.X.X.X.X.",
"D b p q - , , , - , a s D D - , - - , .                                                 : a a p F D 8 , , , - - a a a a , - - - ",
"P K n n k k j k k l n M L K 8 8 , , 8 X                                                 w M M n L P k k k k k k n n d d 8 , 8 8 ",
"I.H.a.a.f.f.f.f.f.f.a.f.a.e.%.+.- 8 %.@       o 2 2 2 2 2 2 2 2 1 1 2 2 2 2 1 1 o X 1 1 5.I.a.f.a.a.f.f.f.f.f.f.f.f.;.%.l - | %.",
"H.N.e.e.e.e.e.e.e.e.e.e.e.e.;.@.< k ;.@       u e.e.e.e.e.e.e.8.%.%.e.e.e.e.;.;.8 , *.:.n.H.i.e.e.e.e.e.e.e.e.e.e.e.:.;.c , | %.",
"-.*.*.*.%.%.%.%.%.%.%.%.%.;.i.3.p M K.#       t %.%.%.%.%.%.) ) ) ) %.%.;.=.e.i.d a V.K.;.-.%.%.%.%.*.*.%.%.%.%.%.%.e.i.A a  .%.",
"%.%.%.%.%.%.%.%.%.%.%.%.%.;.e.3.p Z H.#       t %.%.%.%.%.%.} } ) ) %.%.%.%.e.e.d a N.K.;.%.%.%.%.%.%.%.%.%.%.%.%.%.6.e.A a  .%.",
"%.%.%.%.%.%.%.%.%.%.%.%.%.%.%.@.p Z i.#       t %.%.%.%.) ) e.e.%.%.%.%.%.%.-.-.d a e.i.;.%.%.%.%.%.%.%.%.%.%.%.%.%.&.&.Z a  .%.",
"%.%.%.%.%.%.%.%.%.%.%.%.%.%.%.o.a M i.#       t %.%.%.%.) } e.e.%.%.%.%.%.%.%.%.s s e.i.;.%.%.%.%.%.%.%.%.%.%.%.%.%.%.%.N a  .%.",
"%.%.%.%.%.%.%.%.%.%.%.%.%.%.) ^ D L e.#       t %.%.) ` e.e.=.%.%.%.%.%.%.%.) ) J D 8.i.;.%.%.%.%.%.%.%.%.%.%.%.%.%.' ) K D ..%.",
"%.%.%.%.%.%.%.%.%.%.%.%.%.%.) ^ D P e.#       t %.%.) } e.e.%.%.%.%.%.%.%.%.) ) G F 8.i.;.%.%.%.%.%.%.%.%.%.%.%.%.%.' ) K D ..%.",
"%.%.%.%.%.%.%.%.%.%.%.%.%.%.) ^ D L e.#       t %.%.%.%.%.%.%.%.%.%.%.%.%.%.) ) s a e.i.;.%.%.%.%.%.%.%.%.%.%.%.%.=.' ) K D ..%.",
"%.%.%.%.%.%.%.%.%.%.%.%.%.%.) ^ D P e.#       t %.%.%.%.%.%.%.%.%.%.%.%.%.%.) ) s a e.i.;.%.%.%.%.%.%.%.%.%.%.%.%.%.' ) K D ..%.",
"%.%.%.%.%.%.%.%.%.%.%.%.%.%.) ^ D P e.#       t %.%.%.%.%.%.%.%.%.%.%.%.%.%.) ) s a e.i.;.%.) ) %.%.%.%.%.%.%.%.%.%.' ) K D ..%.",
";.=.%.%.%.%.%.%.%.%.%.%.%.%.( ~ D L e.#       o 1 1 1 1 1 1 1 1 1 1 1 1 1 1 $ $ @ @ Y i.;.;.' ) %.%.%.%.%.%.%.%.%.%.) ( H D ..%.",
"i.6.%.%.) ' %.%.) ) ) ) ) ( a a , k *.@                                             5 =.e.e.;.%.) ) ) ) ) ) ) ) ) ) g a 8 , | %.",
"e.6.%.O.) ) %.X.~ ~ ~ ^ ) ~ p a - 8 %.@                                             3 %.6.e.*.%.) ^ ^ ^ ~ ~ ~ ~ ) ) d a , - { %.",
"d f J F a a 8 8 , , , 8 a a , , , , 8 X                                             + 8 s d F J F J 8 8 8 8 , , a a , , , - , 8 ",
"a s G F a q , , , - , , a a , , , , , X       @ 4 4 & & & & & & 4 4 4 0 r e & & & & - , a s F D F D 8 , , , , , a a 8 , , , , , ",
"i.i.i.i.i.8.%.| - k %.:.K.H.e.i.e.e.e.#       u i.e.%.+.8 8 %.%.K.K.a.e.i.i.i.e.e.i.e.e.i.i.i.i.i.i.;.%.k ,  .%.n.K.a.e.i.e.e.i.",
"i.i.i.i.i.e.%.X.< l -.4.K.H.i.i.i.i.i.#       u i.e.;.%.8 8 %.;.K.K.a.e.i.i.i.i.i.i.i.i.i.i.i.i.i.i.;.%.k , X.-.V.I.a.i.i.i.i.i.",
"=.=.=.=.=.;.i.1.p A K.V.;.;.=.=.=.=.=.@       t =.;.e.8.d n H.K.;.;.*.*.=.=.=.=.=.=.=.=.=.=.=.=.=.=.e.i.Z a k.K.4.;.=.=.=.=.=.=.",
"%.%.%.%.%.;.i.1.p A K.C.%.%.%.%.%.%.%.@       t %.=.e.6.d d H.K.%.%.%.%.%.%.%.%.%.%.%.%.%.%.%.%.%.%.e.i.Z a z.I.4.%.%.%.%.%.%.%.",
"%.%.%.%.%.%.;.o.p Z a.i.%.%.%.%.%.%.%.@       t %.%.;.%.d d e.a.%.%.%.%.%.%.%.%.%.%.%.%.%.%.%.%.%.%.;.;.M a 2.a.;.%.%.%.%.%.%.%.",
"%.%.%.%.%.%.%.X.p Z e.e.%.%.%.%.%.%.%.@       t %.%.%.@.s d e.a.*.%.%.%.%.%.%.%.%.%.%.%.%.%.%.%.%.%.%.%.M a 1.a.;.%.%.%.%.%.%.%.",
"%.%.%.%.%.%.) ~ p Z e.e.%.%.%.%.%.%.%.@       t %.%.) ) F J e.a.*.%.%.%.%.%.%.%.%.%.%.%.%.%.%.%.%.%.' ) d a 1.a.;.%.%.%.%.%.%.%.",
"%.%.%.%.%.%.) ~ a Z e.e.%.%.%.%.%.%.%.@       t %.%.) ^ J J e.a.*.%.%.%.%.%.%.%.%.%.%.%.%.%.%.%.%.%.) ) d a 1.a.;.%.%.%.%.%.%.%.",
"%.%.%.%.%.%.) ^ G ! i.e.%.%.%.%.%.%.%.@       t %.%.) ( s d e.a.%.%.%.%.%.%.%.%.%.%.%.%.%.%.%.%.%.%.{ ) K J 2.a.;.%.%.%.%.%.%.%.",
"%.%.%.%.%.%.) ~ D ! i.e.%.%.%.%.%.%.%.@       t %.%.) ( a d e.a.%.%.%.%.%.%.%.%.%.%.%.%.%.%.%.%.%.%.) ) K J 2.a.;.%.%.%.%.%.%.%.",
"%.%.%.%.%.%.) ~ D ! i.e.%.%.%.%.%.%.%.@       3 X.X.~ E D F 1.3.X.X.X.X.X.X.X.X.X.X.X.X.%.%.%.%.%.%.{ ) J J 2.a.;.%.%.%.%.%.%.%.",
"%.%.%.%.%.%.) ^ D ! i.e.%.%.%.%.%.%.%.@                                                 i %.%.%.%.%.) ) J G 2.a.;.%.%.%.%.%.%.%.",
"%.%.%.%.%.%.) ~ s A e.e.%.%.%.%.%.%.%.@                                                 i %.%.%.%.%.) ) M s 1.f.;.%.} ) %.%.%.%.",
"%.%.%.%.%.%.) ~ a Z e.e.%.%.%.%.%.%.%.@                                                 i %.%.%.%.%.) ) d a >.a.;.*.' ) %.%.%.%.",
") ) ) ) ) ( d s , l ;.;.e.8.%.%.) ) ) o                                                 6 ) ) ) ) ) M d 8 , X.;.8.e.=.%.} ) ) ) ",
") ) ) ) ) ~ a a - k %.;.a.e.%.%.) ) ) ) ) ) ) ) ) ( a a , 8 %.;.i.i.;.%.%.%.%.-.) ) ) ) ) ) ) ) ) ) d a , , X.%.e.a.;.%.' ) ) ) ",
"d d d d d s , , , , 8 8 n n 8 8 8 8 8 9 J J J J d s , , , , 8 8 L K d d d d 8 8 8 8 8 8 G J J J s d , , , , 8 8 H L M d d d 8 8 ",
"a a a a a q - - - - - , a p - - , , - 8 D D D D a a , - - - - , D D a a a a , - , , - - D D D D s a , - - - - - x D s a a a < - ",
"3.3.3.3.3.1.X.@.2.2.2.2.3.1.X.| - 8 X.#.v.n.6.6.3.3.2.2.2.2.2.2.6.6.3.3.3.3.+.X.8 , | +.k.v.8.6.3.3.2.2.2.2.2.2.3.6.3.3.3.3.2.2.",
"a.f.f.f.a.e.%.;.a.f.a.a.a.e.%.+.- 8 %.;.I.K.a.a.a.a.a.a.a.a.a.a.a.a.a.a.a.i.;.%.8 , @.-.H.I.a.a.a.a.a.a.a.a.a.a.a.a.a.a.a.a.a.a.",
";.;.;.;.;.&.) } ;.;.;.;.;.;.e.3.0 M C.n.4.:.;.;.;.;.;.;.;.;.;.;.;.;.;.;.;.;.e.e.s a z.C.4.:.;.;.;.;.;.;.;.;.;.;.;.;.;.;.;.;.;.;.",
"%.%.%.%.%.%.) ' %.%.%.%.%.;.a.3.p M K.H.-.%.%.%.%.%.%.%.%.%.%.%.%.%.%.%.%.*.e.i.d a V.I.;.%.%.%.%.%.%.%.%.%.%.%.%.%.%.%.%.%.%.%.",
"%.%.%.%.%.%.%.o.' } %.%.%.%.;.%.p Z a.a.%.%.%.%.%.%.%.%.%.%.%.%.%.%.%.%.%.%.;.;.d a 8.a.;.%.%.%.%.%.%.%.%.%.%.%.%.%.%.%.%.%.%.%.",
"%.%.%.%.%.%.%.%.) ) %.%.%.%.%.@.p Z e.e.%.%.%.%.%.%.%.%.%.%.%.%.%.%.%.%.%.%.%.%.d a e.i.;.%.%.%.%.%.%.%.%.%.%.%.%.%.%.%.%.%.%.%.",
"%.%.%.%.%.%.%.%.%.%.%.%.%.%.) ) F K e.e.%.%.%.%.%.%.%.%.%.%.%.%.%.%.%.%.%.%.{ ' F F 8.i.;.%.%.%.%.%.%.%.%.%.%.%.%.%.%.%.%.%.%.%.",
"%.%.%.%.%.%.%.%.%.%.%.%.%.%.) ^ D P e.e.%.%.%.%.%.%.%.%.%.%.%.%.%.%.%.%.%.%.) ) J D 8.i.;.%.%.%.%.%.%.%.%.%.%.%.%.%.%.%.%.%.%.%.",
"%.%.%.%.%.%.%.%.%.%.%.%.%.%.) ^ D L e.e.%.%.%.%.%.%.%.%.%.%.%.%.%.%.%.%.%.%.) ) J D 8.i.;.%.%.%.%.%.%.%.%.%.%.%.%.%.%.%.%.%.%.%.",
"%.%.%.%.%.%.%.%.%.%.%.%.%.%.) ^ D L e.e.%.%.%.%.%.%.%.%.%.%.%.%.%.%.%.%.%.%.) ) J F 8.i.;.%.%.%.%.%.%.%.%.%.%.%.%.%.%.%.%.%.%.%.",
"%.%.%.%.' } %.%.' { ' ' ' ) d s 8 z ;.;.e.6.%.%.%.%.%.%.' } %.%.' ' ' ' ' ) M d 8 8 *.;.6.8.;.%.%.%.%.%.} { %.%.} ' ' ' ' ' { ' ",
"%.%.%.%.) ' %.%.) ) ) ) ) ~ a a , j %.;.i.e.%.%.%.%.%.%.) ) %.%.) ) ) ) ) ) d a , , %.%.e.i.;.%.%.%.%.%.) ) %.%.) ) ) ) ) ) ) ) ",
"C B P P K K P W g M M M K H < , , , c v A A C C P P ! P K K P P g M M M K K 8 < , , c c A A W ! ! P P P K K P P K K M M H K c k ",
"a s D D D D D F a a a s D D - , , , , , a a a a D D D D D D D D a a a a F D 8 , , , , , a a F D D D D D D D D D D D s a F D 8 , "
};
