/* XPM */
static char *north[] = {
/* columns rows colors chars-per-pixel */
"64 64 172 2 ",
"   c #0E0C0C",
".  c #100E0E",
"X  c #130F10",
"o  c #141212",
"O  c #191617",
"+  c #131119",
"@  c #1E1D1D",
"#  c #211F1F",
"$  c #171524",
"%  c #191624",
"&  c #1C1826",
"*  c #191729",
"=  c #1C1A2B",
"-  c #1E1B37",
";  c #1F1C38",
":  c #2E1C26",
">  c #201F2E",
",  c #311B27",
"<  c #331E2A",
"1  c #231C37",
"2  c #211E38",
"3  c #281F38",
"4  c #262323",
"5  c #23202E",
"6  c #222D2D",
"7  c #2B2A2A",
"8  c #25223B",
"9  c #2A253D",
"0  c #29283D",
"q  c #372631",
"w  c #3A2533",
"e  c #3E2438",
"r  c #2B3639",
"t  c #2C393A",
"y  c #363535",
"u  c #393636",
"i  c #3E3A39",
"p  c #442436",
"a  c #452538",
"s  c #442A3B",
"d  c #492B3D",
"f  c #44303E",
"g  c #4B313F",
"h  c #433E3D",
"j  c #2C2741",
"k  c #2D2942",
"l  c #332D43",
"z  c #2E3043",
"x  c #2C3F44",
"c  c #333145",
"v  c #383347",
"b  c #343F44",
"n  c #4D2F42",
"m  c #473240",
"M  c #4C3342",
"N  c #443E44",
"B  c #4E3845",
"V  c #4E3E49",
"C  c #513345",
"Z  c #513847",
"A  c #543648",
"S  c #543B4C",
"D  c #2E4646",
"F  c #2E4847",
"G  c #334446",
"H  c #314748",
"J  c #3A464A",
"K  c #344949",
"L  c #3B4B4C",
"P  c #3C4F51",
"I  c #3E5152",
"U  c #444342",
"Y  c #484747",
"T  c #474748",
"R  c #494748",
"E  c #4B4A4A",
"W  c #554E4C",
"Q  c #594A4F",
"!  c #57514F",
"~  c #434D51",
"^  c #5C4F52",
"/  c #415254",
"(  c #525252",
")  c #5D5455",
"_  c #5D5957",
"`  c #5A5159",
"'  c #5D5C5C",
"]  c #605656",
"[  c #615857",
"{  c #615758",
"}  c #635C5A",
"|  c #67605E",
" . c #5E5D65",
".. c #665D65",
"X. c #646162",
"o. c #696362",
"O. c #65656A",
"+. c #6B666A",
"@. c #676C6C",
"#. c #6B6B6D",
"$. c #706C6F",
"%. c #70706F",
"&. c #6E6C71",
"*. c #726772",
"=. c #726E72",
"-. c #786C78",
";. c #6E7174",
":. c #6F7279",
">. c #767676",
",. c #787576",
"<. c #777678",
"1. c #787778",
"2. c #777879",
"3. c #7B797B",
"4. c #7C7E81",
"5. c #857583",
"6. c #887786",
"7. c #867986",
"8. c #887887",
"9. c #867B8A",
"0. c #8B7C8B",
"q. c #7D8284",
"w. c #7B909A",
"e. c #8C828D",
"r. c #80898D",
"t. c #8E8491",
"y. c #8F8A96",
"u. c #918691",
"i. c #938493",
"p. c #928693",
"a. c #908591",
"s. c #938694",
"d. c #948795",
"f. c #938694",
"g. c #958896",
"h. c #968997",
"j. c #968897",
"k. c #978998",
"l. c #978A99",
"z. c #978A99",
"x. c #988A99",
"c. c #988A99",
"v. c #95909E",
"b. c #8793A0",
"n. c #869BA6",
"m. c #889AA7",
"M. c #8C9EA6",
"N. c #899BA7",
"B. c #8F9EA8",
"V. c #87A2AD",
"C. c #8FA3AC",
"Z. c #8EA4AD",
"A. c #8FA4AE",
"S. c #8BA3AE",
"D. c #90A0AB",
"F. c #92A2AD",
"G. c #8FA6B1",
"H. c #90A7B1",
"J. c #92A4B0",
"K. c #90A7B1",
"L. c #90A8B2",
"P. c #94A8B5",
"I. c #95A9B6",
"U. c #95AAB7",
"Y. c #96ABB7",
"T. c #93AAB6",
"R. c #93ADB9",
"E. c #94AEBA",
"W. c #95B0BC",
"Q. c #96B2BE",
"!. c #95B2BE",
"~. c #95B1BD",
/* pixels */
"k.k.k.a.>.O.; k >.q.Q.Y.k.k.k.k.k.k.k.k.k.k.k.k.k.a.<.=.9 9 >.>.Q.Q.k.k.k.k.k.k.k.k.k.k.k.k.k.k.k.k.3.>.k 2 #.>.Y.Q.v.k.k.k.k.k.",
"a.a.a.e.3.&.3 l q.r.Z.B.a.a.a.a.a.a.a.a.a.a.a.a.a.e.3.<.9 9 4.q.Z.Z.t.a.a.a.a.a.a.a.a.a.a.a.a.a.a.a.3.3.l 3 :.q.M.Z.y.a.a.a.a.a.",
">.>.>.3.k.6.p S Q.H.>.>.>.>.>.>.>.>.>.>.>.>.>.>.>.3.h.a.d d R.Q.>.>.>.>.>.>.>.>.>.>.>.>.>.>.>.>.>.>.a.h.A a M.Q.q.>.>.>.>.>.>.>.",
">.>.>.3.a.5.p S Y.D.>.>.>.>.>.>.>.>.>.>.>.>.>.>.>.1.t.0.d d H.Y.>.>.>.>.>.>.>.>.>.>.>.>.>.>.>.>.>.>.e.a.A a b.Y.4.>.>.>.>.>.>.>.",
">.>.>.>.>.+.p A k.a.>.>.>.>.>.>.>.>.>.>.>.>.>.>.>.>.>.>.a d a.h.>.>.>.>.>.>.>.>.>.>.>.>.>.>.>.>.>.>.>.>.M a 6.h.3.>.>.>.>.>.>.>.",
">.>.>.>.>.o.s S k.a.>.>.>.>.>.>.>.>.>.>.>.>.>.>.>.>.>.#.s m a.k.>.>.>.>.>.>.>.>.>.>.>.>.>.>.>.>.>.>.>.>.M s 8.k.3.>.>.>.>.>.>.>.",
">.>.>.>.[ ) F / k.a.>.>.>.>.>.>.>.>.>.>.>.>.>.>.>.>.[ _ K K a.k.>.>.>.>.>.>.>.>.>.>.>.>.>.>.>.>.>.>.[ [ K K 9.k.3.>.>.>.>.>.>.>.",
">.>.>.>.[ ) F / k.a.>.>.>.>.>.>.>.>.>.>.>.>.>.>.>.>.[ _ K K a.k.>.>.>.>.>.>.>.>.>.>.>.>.>.>.>.>.>.>.[ [ J G 9.k.3.>.>.>.>.>.>.>.",
">.>.>.>.[ ) F / k.a.>.>.>.>.>.>.>.>.>.>.>.>.>.>.[ [ [ _ K K a.h.>.>.>.>.>.>.>.>.>.>.>.>.>.>.>.>.>.>.[ [ d a 8.k.3.>.>.>.>.>.>.>.",
">.>.>.>.[ ) G ~ k.a.>.>.>.>.>.>.>.>.>.>.>.>.>.>.| | [ _ G J a.k.>.>.>.>.>.>.>.>.>.>.>.>.>.>.>.>.>.>.[ [ m s 8.k.3.>.>.>.>.>.>.>.",
">.>.>.>.[ ) p A c.a.>.>.>.>.>.>.>.>.>.>.>.>.[ [ >.>.[ ] a d a.k.>.>.>.>.>.>.>.>.>.>.>.>.>.>.>.>.>.>.[ [ K K 9.k.3.>.>.>.>.>.>.>.",
">.>.>.#.) Q a M a.e.3.3.>.>.>.>.>.>.>.>.>.>.[ [ >.>.) ^ a s e.a.3.3.>.>.>.>.>.>.>.>.>.>.>.>.>.>.>.>.{ ) G F 8.a.4.3.>.>.>.>.>.>.",
"[ [ [ ) a e ; k >.3.h.a.>.>.[ [ [ W i i i i i ! [ ] a a 2 9 >.>.h.h.1.>.>.>.>.>.W i Y E h [ [ [ [ [ d a 2 2 #.>.a.k.3.>.>.>.>.>.",
"_ ) ) Q a e 2 k #.=.0.8.;.#.) ) ) i           # ) ) a e 2 9 +.#.0.0.=.$.$.$.#.#.u         ) ) ] ' ' s a 2 2  .#.8.0.=.$.#.#.#.#.",
"F b p e ; 2 2 2 ; 2 a s F F ; 2 2 *             , a 2 ; 2 2 ; ; a a a a a a 2 ; $         a a p G F 9 2 2 2 ; ; a a a a 2 ; ; ; ",
"I L n n k k j k k l n M P L 9 9 2 *             X s k k k k k k d d n n n n 9 9 %         M M n P I k k k k k k n n d d 9 2 9 9 ",
"Q.Y.k.k.c.c.c.c.c.c.k.c.k.a.>.&.; >               N c.c.c.c.c.c.3.3.h.c.k.k.3.>.&         Q.k.c.k.k.c.c.c.c.c.c.c.c.3.>.l ; O.>.",
"Y.D.a.a.a.a.a.a.a.a.a.a.a.a.3.=.3 5                 *.a.a.a.a.t.>.>.a.a.a.a.3.3.&         Y.h.a.a.a.a.a.a.a.a.a.a.a.4.3.c 2 O.>.",
"2.<.<.<.>.>.>.>.>.>.>.>.>.3.h.0.p w                 @ >.>.>.[ [ [ [ >.>.3.1.a.h.:         2.>.>.>.>.<.<.>.>.>.>.>.>.a.h.S a +.>.",
">.>.>.>.>.>.>.>.>.>.>.>.>.3.a.0.p w         4         U >.>.o.o.[ [ >.>.>.>.a.a.:         >.>.>.>.>.>.>.>.>.>.>.>.>.e.a.S a +.>.",
">.>.>.>.>.>.>.>.>.>.>.>.>.>.>.=.p w         X.o       X ! [ a.a.>.>.>.>.>.>.1.>.:         >.>.>.>.>.>.>.>.>.>.>.>.>.,.,.A a +.>.",
">.>.>.>.>.>.>.>.>.>.>.>.>.>.>.$.a q         #.E         4 o.a.a.>.>.>.>.>.>.>.>.:         >.>.>.>.>.>.>.>.>.>.>.>.>.>.>.B a +.>.",
">.>.>.>.>.>.>.>.>.>.>.>.>.>.[ _ F t         #.>.4         ..>.>.>.>.>.>.>.>.[ [ 6         >.>.>.>.>.>.>.>.>.>.>.>.>.| [ L F @.>.",
">.>.>.>.>.>.>.>.>.>.>.>.>.>.[ _ F t         #.>.X..       O #.>.>.>.>.>.>.>.[ [ 6         >.>.>.>.>.>.>.>.>.>.>.>.>.| [ L F @.>.",
">.>.>.>.>.>.>.>.>.>.>.>.>.>.[ _ F t         #.>.>.U         u >.>.>.>.>.>.>.[ [ :         >.>.>.>.>.>.>.>.>.>.>.>.1.| [ L F @.>.",
">.>.>.>.>.>.>.>.>.>.>.>.>.>.[ _ F t         #.>.>.>.@         ' >.>.>.>.>.>.[ [ :         >.>.>.>.>.>.>.>.>.>.>.>.>.| [ L F @.>.",
">.>.>.>.>.>.>.>.>.>.>.>.>.>.[ _ F t         #.>.>.>.'         @ >.>.>.>.>.>.[ [ :         >.[ [ >.>.>.>.>.>.>.>.>.1.| [ L F @.>.",
"3.1.>.>.>.>.>.>.>.>.>.>.>.>.] ) F r         #.>.>.>.>.u         U >.>.>.>.>.[ ] :         3.| [ >.>.>.>.>.>.>.>.>.>.[ ] J F @.>.",
"h.e.>.>.[ | >.>.[ [ [ [ [ ] a a 2 >         #.>.>.>.>.#.o       . ! [ [ [ [ d a %         a.3.>.[ [ [ [ [ [ [ [ [ [ g a 9 2 O.>.",
"a.e.>.%.[ [ >.#.) ) ) _ [ ) a a ; *         +.>.>.>.>.>.h         4 [ [ [ _ s a %         a.<.>.[ ' _ _ ) ) ) ) [ [ d a 2 ; X.>.",
"d f K G a a 9 9 2 2 2 9 a a 2 2 2 *         p a d a 9 9 2 +         < s G G 9 2 %         d G K G K 9 9 9 9 2 2 a a 2 2 2 ; 2 9 ",
"a s H G a e 2 2 2 2 2 2 a a 2 2 2 *         w a a a 2 2 2 ;         X p G F 9 2 %         s G F F F 9 2 2 2 2 2 a a 9 2 2 2 2 2 ",
"h.h.h.h.h.t.>.O.; k >.4.R.Y.a.h.a...        9.h.h.a.>.&.9 9 T         N h.h.h.a.`         h.h.h.h.h.3.>.k 2 +.>.Z.R.k.a.h.a.a.h.",
"h.h.h.h.h.a.>.#.3 l 2.q.R.Y.h.h.h...        9.h.h.a.3.>.9 9 >.4         -.h.h.h.`         h.h.h.h.h.3.>.k 2 #.2.G.Q.k.h.h.h.h.h.",
"1.1.1.1.1.3.h.8.p S R.G.3.3.1.1.1.(         #.1.1.3.a.t.d n Y.w.        # >.1.1.R         1.1.1.1.1.a.h.A a n.R.q.3.1.1.1.1.1.1.",
">.>.>.>.>.3.h.8.p S R.H.>.>.>.>.>.(         #.>.>.1.a.e.d d Y.R.i         U >.>.Y         >.>.>.>.>.a.h.A a M.Q.q.>.>.>.>.>.>.>.",
">.>.>.>.>.>.3.$.p A k.h.>.>.>.>.>.(         #.>.>.>.3.>.d d a.k.>.@       o #.>.Y         >.>.>.>.>.3.3.M a 9.k.3.>.>.>.>.>.>.>.",
">.>.>.>.>.>.>.#.p A a.a.>.>.>.>.>.(         #.>.>.>.>.=.s d a.k.>.'         7 >.Y         >.>.>.>.>.>.>.M a 8.k.3.>.>.>.>.>.>.>.",
">.>.>.>.>.>.[ ) p A a.a.>.>.>.>.>.(         #.>.>.>.[ [ G K a.k.>.>.u         ( Y         >.>.>.>.>.| [ d a 8.k.3.>.>.>.>.>.>.>.",
">.>.>.>.>.>.[ ) a A a.a.>.>.>.>.>.(         #.>.>.>.[ _ K K a.k.>.>.#.o       O U         >.>.>.>.>.[ [ d a 8.k.3.>.>.>.>.>.>.>.",
">.>.>.>.>.>.[ _ H / h.a.>.>.>.>.>.(         #.>.>.>.[ ] s d a.k.>.>.>.(         o         >.>.>.>.>.X.[ L K 9.k.3.>.>.>.>.>.>.>.",
">.>.>.>.>.>.[ ) F / h.a.>.>.>.>.>.(         #.>.>.>.[ ] a d a.k.>.>.>.>.7                 >.>.>.>.>.[ [ L K 9.k.3.>.>.>.>.>.>.>.",
">.>.>.>.>.>.[ ) F / h.a.>.>.>.>.>.(         #.>.>.>.[ _ G K a.k.>.>.>.>.#.o               >.>.>.>.>.X.[ K K 9.k.3.>.>.>.>.>.>.>.",
">.>.>.>.>.>.[ _ F / h.a.>.>.>.>.>.(         #.>.>.>.[ _ K K a.k.>.>.>.>.>.U               >.>.>.>.>.[ [ K H 9.k.3.>.>.>.>.>.>.>.",
">.>.>.>.>.>.[ ) s S a.a.>.>.>.>.>.(         #.>.>.>.[ _ K K a.k.>.>.>.>.>.>.#             >.>.>.>.>.[ [ M s 8.c.3.>.o.[ >.>.>.>.",
">.>.>.>.>.>.[ ) a A a.a.>.>.>.>.>.(         #.>.>.>.[ _ H K a.h.1.>.>.>.>.>.X.            >.>.>.>.>.[ [ d a 5.k.3.<.| [ >.>.>.>.",
"[ [ [ [ [ ] d s 2 l 3.3.a.t.>.>.[ U         ) [ [ [ d s 9 9 <.3.a.a.1.>.>.>.>.i           [ [ [ [ [ M d 9 2 #.3.t.a.1.>.o.[ [ [ ",
"[ [ [ [ [ ) a a ; l >.3.k.a.>.>.[ [ [ [ [ [ [ [ [ ] a a 2 9 >.3.h.h.3.>.>.>.>.2.[ [ [ [ [ [ [ [ [ [ d a 2 2 #.1.a.k.3.>.| [ [ [ ",
"d d d d d s 2 2 2 2 9 9 n n 9 9 9 9 9 0 K K K K d s 2 2 2 2 9 9 P L d d d d 9 9 9 9 9 9 H K K K s d 2 2 2 2 9 9 J P M d d d 9 9 ",
"a a a a a e ; ; ; ; ; 2 a p ; ; 2 2 ; 9 F F F F a a 2 ; ; ; ; 2 F F a a a a 2 ; 2 2 ; ; F F F F s a 2 ; ; ; ; ; x F s a a a 3 ; ",
"0.0.0.0.0.8.#.=.9.9.9.9.0.8.#.O.; 9 #.;.V.Z.e.e.0.0.9.9.9.9.9.9.e.e.0.0.0.0.&.#.9 2 O.&.n.V.t.e.0.0.9.9.9.9.9.9.0.e.0.0.0.0.9.9.",
"c.c.c.c.k.a.>.3.k.c.k.k.k.a.>.&.; 9 >.3.Q.R.k.k.k.k.k.k.k.k.k.k.k.k.k.k.k.h.3.>.9 2 =.2.Y.Q.k.k.k.k.k.k.k.k.k.k.k.k.k.k.k.k.k.k.",
"3.3.3.3.3.,.[ o.3.3.3.3.3.3.a.0.w M H.Z.q.4.3.3.3.3.3.3.3.3.3.3.3.3.3.3.3.3.a.a.s a M.H.q.4.3.3.3.3.3.3.3.3.3.3.3.3.3.3.3.3.3.3.",
">.>.>.>.>.>.[ | >.>.>.>.>.3.k.0.p M R.Y.2.>.>.>.>.>.>.>.>.>.>.>.>.>.>.>.>.<.a.h.d a G.Q.3.>.>.>.>.>.>.>.>.>.>.>.>.>.>.>.>.>.>.>.",
">.>.>.>.>.>.>.$.| o.>.>.>.>.3.>.p A k.k.>.>.>.>.>.>.>.>.>.>.>.>.>.>.>.>.>.>.3.3.d a t.k.3.>.>.>.>.>.>.>.>.>.>.>.>.>.>.>.>.>.>.>.",
">.>.>.>.>.>.>.>.[ [ >.>.>.>.>.=.p A a.a.>.>.>.>.>.>.>.>.>.>.>.>.>.>.>.>.>.>.>.>.d a a.h.3.>.>.>.>.>.>.>.>.>.>.>.>.>.>.>.>.>.>.>.",
">.>.>.>.>.>.>.>.>.>.>.>.>.>.[ [ G L a.a.>.>.>.>.>.>.>.>.>.>.>.>.>.>.>.>.>.>.X.| G G t.h.3.>.>.>.>.>.>.>.>.>.>.>.>.>.>.>.>.>.>.>.",
">.>.>.>.>.>.>.>.>.>.>.>.>.>.[ _ F P a.a.>.>.>.>.>.>.>.>.>.>.>.>.>.>.>.>.>.>.[ [ K F t.h.3.>.>.>.>.>.>.>.>.>.>.>.>.>.>.>.>.>.>.>.",
">.>.>.>.>.>.>.>.>.>.>.>.>.>.[ _ F P a.a.>.>.>.>.>.>.>.>.>.>.>.>.>.>.>.>.>.>.[ [ K G t.h.3.>.>.>.>.>.>.>.>.>.>.>.>.>.>.>.>.>.>.>.",
">.>.>.>.>.>.>.>.>.>.>.>.>.>.[ _ H P a.a.>.>.>.>.>.>.>.>.>.>.>.>.>.>.>.>.>.>.[ [ K G t.h.3.>.>.>.>.>.>.>.>.>.>.>.>.>.>.>.>.>.>.>.",
">.>.>.>.| o.>.>.| X.| | | [ d s 9 z 3.3.a.e.>.>.>.>.>.>.| o.>.>.| | | | | [ M d 9 9 <.3.e.t.3.>.>.>.>.>.o.X.>.>.o.| | | | | X.| ",
">.>.>.>.[ | >.>.[ [ [ [ [ ) a a 2 j >.3.h.a.>.>.>.>.>.>.[ [ >.>.[ [ [ [ [ [ d a 2 2 ;.>.a.h.3.>.>.>.>.>.[ [ >.>.[ [ [ [ [ [ [ [ ",
"Z V I I L L I ~ g M M M L J 3 2 2 2 c v S S Z Z I I / I L L I I g M M M L L 9 3 2 2 c c S S ~ / / I I I L L I I L L M M J L c k ",
"a s F F F F F G a a a s F F ; 2 2 2 2 2 a a a a F F F F F F F F a a a a G F 9 2 2 2 2 2 a a G F F F F F F F F F F F s a G F 9 2 "
};
