/* XPM */
static char *south[] = {
/* columns rows colors chars-per-pixel */
"64 64 173 2 ",
"   c #0E0C0C",
".  c #100E0E",
"X  c #120F12",
"o  c #141212",
"O  c #191717",
"+  c #15121B",
"@  c #1E1419",
"#  c #151818",
"$  c #1C1C1C",
"%  c #201F1F",
"&  c #161420",
"*  c #1A172B",
"=  c #1E1B36",
"-  c #1F1C38",
";  c #261821",
":  c #231D37",
">  c #211E38",
",  c #281F38",
"<  c #252223",
"1  c #292626",
"2  c #242D2E",
"3  c #2F2C2E",
"4  c #30212A",
"5  c #38222E",
"6  c #302F2F",
"7  c #25223B",
"8  c #2A253D",
"9  c #29283D",
"0  c #372231",
"q  c #3C2233",
"w  c #332E32",
"e  c #3E2438",
"r  c #293335",
"t  c #293C3C",
"y  c #343233",
"u  c #393534",
"i  c #3D3837",
"p  c #3C353A",
"a  c #303D3F",
"s  c #3B3A39",
"d  c #452337",
"f  c #452538",
"g  c #442A3B",
"h  c #492B3D",
"j  c #44303E",
"k  c #4B313F",
"l  c #413C3B",
"z  c #2C2741",
"x  c #2D2A41",
"c  c #332D43",
"v  c #2E3043",
"b  c #2C3F44",
"n  c #333145",
"m  c #383347",
"M  c #343F44",
"N  c #4D2F42",
"B  c #473240",
"V  c #4C3342",
"C  c #463E45",
"Z  c #4E3845",
"A  c #4E3E49",
"S  c #513345",
"D  c #513847",
"F  c #543648",
"G  c #543B4C",
"H  c #2E4646",
"J  c #2E4847",
"K  c #334346",
"L  c #314748",
"P  c #3A464A",
"I  c #344949",
"U  c #3B4B4C",
"Y  c #3C4E51",
"T  c #3E5152",
"R  c #454344",
"E  c #4E4745",
"W  c #4E474E",
"Q  c #4C4A4B",
"!  c #594A4F",
"~  c #434D51",
"^  c #544C54",
"/  c #5C4F52",
"(  c #415254",
")  c #4C575D",
"_  c #545353",
"`  c #5D5455",
"'  c #5D5957",
"]  c #5C545C",
"[  c #5D5C5C",
"{  c #605656",
"}  c #615857",
"|  c #615758",
" . c #645C5A",
".. c #67605E",
"X. c #5E5D65",
"o. c #665F60",
"O. c #646262",
"+. c #696362",
"@. c #65656A",
"#. c #6C666A",
"$. c #676C6C",
"%. c #6B6B6D",
"&. c #716C6F",
"*. c #70706F",
"=. c #606A73",
"-. c #6E6C71",
";. c #726E72",
":. c #6E7174",
">. c #6F7279",
",. c #767676",
"<. c #787576",
"1. c #767678",
"2. c #787778",
"3. c #777879",
"4. c #7B797B",
"5. c #7C7E81",
"6. c #837582",
"7. c #887786",
"8. c #867986",
"9. c #887887",
"0. c #867B8A",
"q. c #8B7C8B",
"w. c #7D8284",
"e. c #72858E",
"r. c #8C828D",
"t. c #80898D",
"y. c #8E8491",
"u. c #8F8A96",
"i. c #918592",
"p. c #938493",
"a. c #928693",
"s. c #908591",
"d. c #938694",
"f. c #948795",
"g. c #938694",
"h. c #968997",
"j. c #958896",
"k. c #968897",
"l. c #978998",
"z. c #978A99",
"x. c #978A99",
"c. c #988A99",
"v. c #988A99",
"b. c #95909E",
"n. c #8793A0",
"m. c #859AA5",
"M. c #889AA7",
"N. c #8C9EA6",
"B. c #899BA7",
"V. c #8F9EA8",
"C. c #87A2AD",
"Z. c #8FA3AC",
"A. c #8EA4AD",
"S. c #8FA4AE",
"D. c #8CA4AE",
"F. c #90A0AB",
"G. c #92A2AD",
"H. c #8FA6B1",
"J. c #90A7B1",
"K. c #92A4B0",
"L. c #90A7B1",
"P. c #90A8B2",
"I. c #94A8B5",
"U. c #95A9B6",
"Y. c #95AAB7",
"T. c #96ABB7",
"R. c #93AAB6",
"E. c #93ADB9",
"W. c #94AEBA",
"Q. c #95B0BC",
"!. c #96B2BE",
"~. c #95B2BE",
"^. c #95B1BD",
/* pixels */
"l.l.l.s.,.@.- x ,.w.!.T.l.l.l.l.l.l.l.l.l.l.l.l.l.s.1.;.8 8 ,.,.!.!.l.l.l.l.l.l.l.l.l.l.l.l.l.l.l.l.4.,.x > %.,.T.!.b.l.l.l.l.l.",
"s.s.s.r.4.-., c w.t.A.V.s.s.s.s.s.s.s.s.s.s.s.s.s.r.4.1.8 8 5.w.A.A.y.s.s.s.s.s.s.s.s.s.s.s.s.s.s.s.4.4.c , >.w.N.A.u.s.s.s.s.s.",
",.,.,.4.l.7.d G !.J.,.,.,.,.,.,.,.,.,.,.,.,.,.,.,.4.h.s.h h E.!.,.,.,.,.,.,.,.,.,.,.,.,.,.,.,.,.,.,.s.h.F f N.!.w.,.,.,.,.,.,.,.",
",.,.,.4.s.6.d G T.F.,.,.,.,.,.,.,.,.,.,.,.,.,.,.,.2.y.q.h h J.T.,.,.,.,.,.,.,.,.,.,.,.,.,.,.,.,.,.,.r.s.F f n.T.5.,.,.,.,.,.,.,.",
",.,.,.,.,.#.d F l.s.,.,.,.,.,.,.,.,.,.,.,.,.,.,.,.,.,.,.f h s.h.,.,.,.,.,.,.,.,.,.,.,.,.,.,.,.,.,.,.,.,.V f 7.h.4.,.,.,.,.,.,.,.",
",.,.,.,.,.+.g G l.s.,.,.,.,.,.,.,.,.,.,.,.,.,.,.,.,.,.%.g B s.l.,.,.,.,.,.,.,.,.,.,.,.,.,.,.,.,.,.,.,.,.V g 9.l.4.,.,.,.,.,.,.,.",
",.,.,.,.} ` J ( l.s.,.,.,.,.,.,.,.,.,.,.,.,.,.,.,.,.} ' I I s.l.,.,.,.,.,.,.,.,.,.,.,.,.,.,.,.,.,.,.} } I I 0.l.4.,.,.,.,.,.,.,.",
",.,.,.,.} ` J ( l.s.,.,.,.,.,.,.,.,.,.,.,.,.,.,.,.,.} ' I I s.l.,.,.,.,.,.,.,.,.,.,.,.,.,.,.,.,.,.,.} } P K 0.l.4.,.,.,.,.,.,.,.",
",.,.,.,.} ` J ( l.s.,.,.,.,.,.,.,.,.,.,.,.,.,.,.} } } ' I I s.h.,.,.,.,.,.,.,.,.,.,.,.,.,.,.,.,.,.,.} } h f 9.l.4.,.,.,.,.,.,.,.",
",.,.,.,.} ` K ~ l.s.,.,.,.,.,.,.,.,.,.,.,.,.,.,.....} ' K P s.l.,.,.,.,.,.,.,.,.,.,.,.,.,.,.,.,.,.,.} } B g 9.l.4.,.,.,.,.,.,.,.",
",.,.,.,.} ` d F v.s.,.,.,.,.,.,.,.,.,.,.,.,.} } ,.,.} { f h s.l.,.,.,.,.,.,.,.,.,.,.,.,.,.,.,.,.,.,.} } I I 0.l.4.,.,.,.,.,.,.,.",
",.,.,.%.` ! f V s.r.4.4.,.,.,.,.,.,.,.,.,.,.} } ,.,.` / q 0 ;.q.4.4.,.,.,.,.,.,.,.,.,.,.,.,.,.,.,.,.| ` K J 9.s.5.4.,.,.,.,.,.,.",
"} } } ` f e - x ,.4.h.s.,.,.} } } } } } } } } ` u < o           o < 6 _ ,.,.,.,.} } ,.,.} } } } } } h f > > %.,.s.l.4.,.,.,.,.,.",
"' ` ` ! f e > x %.;.q.9.:.%.` ` ` ` ` ` ' ' l o                         $ Q %.%.` ` %.%.| ` ` ` [ [ g f > > X.%.9.q.;.&.%.%.%.%.",
"J M d e - > > > - > f g J J - > - - > 8 t #                                 X * - > - > f f f d K J 8 > > > - - f f f f > - - - ",
"T U N N x x z x x c N V Y U 8 8 - > 8 8 o               X + X                   * > 8 8 V V V N Y T x x x x x x N N h h 8 > 8 8 ",
"!.T.l.l.v.v.v.v.v.v.l.v.l.s.,.-.- 8 ,.$         o ^ 0.h.v.v.v.s.@._ 3             - ,.4.T.!.l.v.l.l.v.v.v.v.v.v.v.v.4.,.c - @.,.",
"T.F.s.s.s.s.s.s.s.s.s.s.s.s.4.;., x Q         w 0.s.s.s.s.s.s.y.,.,.y.^ .         + 1.5.A.T.h.s.s.s.s.s.s.s.s.s.s.s.5.4.n > @.,.",
"3.1.1.1.,.,.,.,.,.,.,.,.,.4.h.q.d V <       O %.,.,.,.,.,.,.} } } } ,.,.@..         m.E.4.3.,.,.,.,.1.1.,.,.,.,.,.,.s.h.G f #.,.",
",.,.,.,.,.,.,.,.,.,.,.,.,.4.s.q.d g         _ ,.,.,.,.,.,.,.+.+.} } ,.,.,.s         =.E.4.,.,.,.,.,.,.,.,.,.,.,.,.,.r.s.G f #.,.",
",.,.,.,.,.,.,.,.,.,.,.,.,.,.,.;.d 5         %.,.,.,.,.,.} } s.s.,.,.,.,.,.%.        C h.4.,.,.,.,.,.,.,.,.,.,.,.,.,.<.<.F f #.,.",
",.,.,.,.,.,.,.,.,.,.,.,.,.,.,.&.f 4       o ,.,.,.,.,.,.} +.s.s.,.,.,.,.,.,.$       p h.4.,.,.,.,.,.,.,.,.,.,.,.,.,.,.,.Z f #.,.",
",.,.,.,.,.,.,.,.,.,.,.,.,.,.} ' J 2         @.,.,.,.}  .s.s.2.,.,.,.,.,.,.,.u 1 $ $ Q h.4.,.,.,.,.,.,.,.,.,.,.,.,.,...} U J $.,.",
",.,.,.,.,.,.,.,.,.,.,.,.,.,.} ' J r         Q ,.,.,.} +.s.s.,.,.,.,.,.,.,.,.} } L K y.h.4.,.,.,.,.,.,.,.,.,.,.,.,.,...} U J $.,.",
",.,.,.,.,.,.,.,.,.,.,.,.,.,.} ' J a         . _ ,.,.,.,.,.,.,.,.,.,.,.,.,.,.} } g f s.h.4.,.,.,.,.,.,.,.,.,.,.,.,.3...} U J $.,.",
",.,.,.,.,.,.,.,.,.,.,.,.,.,.} ' J Y $           s @.,.,.,.,.,.,.,.,.,.,.,.,.} } g f s.h.4.,.,.,.,.,.,.,.,.,.,.,.,.,...} U J $.,.",
",.,.,.,.,.,.,.,.,.,.,.,.,.,.} ' J T ]               O u _ %.,.,.,.,.,.,.,.,.} } g f s.h.4.,.} } ,.,.,.,.,.,.,.,.,.,...} U J $.,.",
"4.2.,.,.,.,.,.,.,.,.,.,.,.,.{ ` J Y s.p                     $ u Q @.,.,.,.,.} { f f q.h.4.4...} ,.,.,.,.,.,.,.,.,.,.} { P J $.,.",
"h.r.,.,.} ..,.,.} } } } } { f f > x 1.4.W .                         o < l ` h f > > ;.2.s.s.4.,.} } } } } } } } } } k f 8 > @.,.",
"s.q.,.*.} } ,.%.` ` ` ' } ` f f - 8 ;.,.s.6.s o                             @ q > > %.,.r.s.1.,.} [ ' ' ` ` ` ` } } h f > - @.,.",
"h j I K f f 8 8 > > > 8 f f > > > > 8 8 h h h f 5 ; X                           + , 8 8 g h K I K L 8 8 8 8 > > f f > > > - > 8 ",
"f g L K f e > > > > > > f f > > > > > > f f f f f f > - * & o                     + > > f g K J K J 8 > > > > > f f 8 > > > > > ",
"h.h.h.h.h.y.,.@.- x ,.5.E.T.s.h.s.s.s.h.h.h.h.h.h.s.,.-.8 8 ,.,.e.) <               ] s.h.h.h.h.h.h.4.,.x > #.,.A.E.l.s.h.s.s.h.",
"h.h.h.h.h.s.,.%., c 3.w.E.T.h.h.h.h.h.h.h.h.h.h.h.s.4.,.8 8 ,.4.E.E.l.2.p           o s.h.h.h.h.h.h.4.,.x > %.3.H.!.l.h.h.h.h.h.",
"2.2.2.2.2.4.h.9.d G E.H.4.4.2.2.2.2.2.2.2.2.2.2.2.4.s.y.h N T.E.4.4.1.1.2.[           _ 2.2.2.2.2.2.s.h.F f m.E.w.4.4.2.2.2.2.2.",
",.,.,.,.,.4.h.9.d G E.J.,.,.,.,.%.%.%.%.%.,.,.,.,.2.s.r.h h T.E.,.,.,.,.,.,.Q         s ,.,.,.,.,.,.s.h.F f N.!.w.,.,.,.,.,.,.,.",
",.,.,.,.,.,.4.&.d F l.h.,.,.,.,.u       < ,.,.,.,.,.4.,.h h s.l.,.,.,.,.,.,.%.        3 ,.,.,.,.,.,.4.4.V f 0.l.4.,.,.,.,.,.,.,.",
",.,.,.,.,.,.,.%.d F s.s.,.,.,.,.s       o ,.,.,.,.,.,.;.g h s.l.,.,.,.,.,.,.,.O       1 ,.,.,.,.,.,.,.,.V f 9.l.4.,.,.,.,.,.,.,.",
",.,.,.,.,.,.} ` d F s.s.,.,.,.,.R         @.,.,.,.,.} } K I s.l.,.,.,.,.,.,.,.$       u ,.,.,.,.,.,...} h f 9.l.4.,.,.,.,.,.,.,.",
",.,.,.,.,.,.} ` f F s.s.,.,.,.,.[         s ,.,.,.,.} ' I I s.l.,.,.,.,.,.,.,..       s ,.,.,.,.,.,.} } h f 9.l.4.,.,.,.,.,.,.,.",
",.,.,.,.,.,.} ' L ( h.s.,.,.,.,.,.o       o %.,.,.,.} { g h s.l.,.,.,.,.,.,.Q         _ ,.,.,.,.,.,.@.} U I 0.l.4.,.,.,.,.,.,.,.",
",.,.,.,.,.,.} ` J ( h.s.,.,.,.,.,.R         % %.,.,.} { f h s.l.,.,.,.,.,.@.o       o ,.,.,.,.,.,.,.} } U I 0.l.4.,.,.,.,.,.,.,.",
",.,.,.,.,.,.} ` J ( h.s.,.,.,.,.,.,.O         $ [ ,.} ' K I s.l.,.,.,.,.Q o         s ,.,.,.,.,.,.,.@.} I I 0.l.4.,.,.,.,.,.,.,.",
",.,.,.,.,.,.} ' J ( h.s.,.,.,.,.,.,.[ .           1 i Q J I s.9.[ Q u $           $ ,.,.,.,.,.,.,.,.} } I L 0.l.4.,.,.,.,.,.,.,.",
",.,.,.,.,.,.} ` g G s.s.,.,.,.,.,.,.,._ .                   X                   < %.,.,.,.,.,.,.,.,.} } V g 9.v.4.,.+.} ,.,.,.,.",
",.,.,.,.,.,.} ` f F s.s.,.,.,.,.,.,.,.,.@.$                                 o s ,.3.,.,.,.,.,.,.,.,.} } h f 6.l.4.1...} ,.,.,.,.",
"} } } } } { h g > c 4.4.s.y.,.,.} } } } } } s O                         % Q ,.,.....} } } } } } } } V h 8 > %.4.y.s.2.,.+.} } } ",
"} } } } } ` f f - c ,.4.l.s.,.,.} } } } } } } } E u @ o     o % u R R [ ,.,.3.4.} } } } } } } } } } h f > > %.,.s.l.4.,...} } } ",
"h h h h h g > > > > 8 8 N N 8 8 8 8 8 9 I I I I h g > > > > 8 8 Y U h h h h 8 8 8 8 8 8 L I I I g h > > > > 8 8 P Y V h h h 8 8 ",
"f f f f f e - - - - - > f d - - > > - 8 J J J J f f > - - - - > J J f f f f > - > > - - J J J J g f > - - - - - b J g f f f , - ",
"q.q.q.q.q.9.%.;.0.0.0.0.q.9.%.@.- 8 %.:.C.A.r.r.q.q.0.0.0.0.0.0.r.r.q.q.q.q.-.%.8 > @.-.m.C.y.r.q.q.0.0.0.0.0.0.q.r.q.q.q.q.0.0.",
"v.v.v.v.l.s.,.4.l.v.l.l.l.s.,.-.- 8 ,.4.!.E.l.l.l.l.l.l.l.l.l.l.l.l.l.l.l.h.4.,.8 > ;.3.T.!.l.l.l.l.l.l.l.l.l.l.l.l.l.l.l.l.l.l.",
"4.4.4.4.4.<.} +.4.4.4.4.4.4.s.q.q V J.A.w.5.4.4.4.4.4.4.4.4.4.4.4.4.4.4.4.4.s.s.g f N.J.w.5.4.4.4.4.4.4.4.4.4.4.4.4.4.4.4.4.4.4.",
",.,.,.,.,.,.} ..,.,.,.,.,.4.l.q.d V E.T.3.,.,.,.,.,.,.,.,.,.,.,.,.,.,.,.,.1.s.h.h f H.!.4.,.,.,.,.,.,.,.,.,.,.,.,.,.,.,.,.,.,.,.",
",.,.,.,.,.,.,.&...+.,.,.,.,.4.,.d F l.l.,.,.,.,.,.,.,.,.,.,.,.,.,.,.,.,.,.,.4.4.h f y.l.4.,.,.,.,.,.,.,.,.,.,.,.,.,.,.,.,.,.,.,.",
",.,.,.,.,.,.,.,.} } ,.,.,.,.,.;.d F s.s.,.,.,.,.,.,.,.,.,.,.,.,.,.,.,.,.,.,.,.,.h f s.h.4.,.,.,.,.,.,.,.,.,.,.,.,.,.,.,.,.,.,.,.",
",.,.,.,.,.,.,.,.,.,.,.,.,.,.} } K U s.s.,.,.,.,.,.,.,.,.,.,.,.,.,.,.,.,.,.,.@...K K y.h.4.,.,.,.,.,.,.,.,.,.,.,.,.,.,.,.,.,.,.,.",
",.,.,.,.,.,.,.,.,.,.,.,.,.,.} ' J T s.s.,.,.,.,.,.,.,.,.,.,.,.,.,.,.,.,.,.,.} } I J y.h.4.,.,.,.,.,.,.,.,.,.,.,.,.,.,.,.,.,.,.,.",
",.,.,.,.,.,.,.,.,.,.,.,.,.,.} ' J Y s.s.,.,.,.,.,.,.,.,.,.,.,.,.,.,.,.,.,.,.} } I J y.h.4.,.,.,.,.,.,.,.,.,.,.,.,.,.,.,.,.,.,.,.",
",.,.,.,.,.,.,.,.,.,.,.,.,.,.} ' J Y s.s.,.,.,.,.,.,.,.,.,.,.,.,.,.,.,.,.,.,.} } I K y.h.4.,.,.,.,.,.,.,.,.,.,.,.,.,.,.,.,.,.,.,.",
",.,.,.,...+.,.,...@.......} h g 8 v 4.4.s.r.,.,.,.,.,.,...+.,.,...........} V h 8 8 1.4.r.y.4.,.,.,.,.,.+.@.,.,.+...........@...",
",.,.,.,.} ..,.,.} } } } } ` f f > z ,.4.h.s.,.,.,.,.,.,.} } ,.,.} } } } } } h f > > :.,.s.h.4.,.,.,.,.,.} } ,.,.} } } } } } } } ",
"D A T T U U T ~ k V V V U P , > > > n m G G D D T T ( T U U T T k V V V U U 8 , > > n n G G ~ ( ( T T T U U T T U U V V P U n x ",
"f g J J J J J K f f f g J J - > > > > > f f f f J J J J J J J J f f f f K J 8 > > > > > f f K J J J J J J J J J J J g f K J 8 > "
};
